<svg xmlns="http://www.w3.org/2000/svg" viewBox="0 0 209.42 265.41"><defs><style>.cls-1{fill:#432818;}</style></defs><g id="Livello_2" data-name="Livello 2"><g id="Livello_1-2" data-name="Livello 1"><path class="cls-1" d="M208.15,44.65c-1.92-3.11-5.23-4.12-8.19-4.7-2.14-.42-4.24-.76-6.29-1.11-6.19-1-11.53-1.9-16.82-4.5a130.72,130.72,0,0,1-20.12-12.63,42.22,42.22,0,0,1-4.56-4.16,50.68,50.68,0,0,0-6.34-5.65c-9.21-6.62-20.32-10.65-34-11.65A76.58,76.58,0,0,0,77.94,5C69.51,8.24,64,13.15,58.25,18.35l-3,2.66c-11.53,10.1-23.95,16.86-33.2,18.08-.31,0-.86.07-1.55.11C12.2,39.74.83,40.47.09,49c-.36,4.28.42,8.5,1.19,12.58A45.18,45.18,0,0,1,2.35,70c-.05,3.71-.27,7.52-.5,11.37-.56,9.59-1.14,19.51.68,29.13,3.78,20,20.14,33.61,42.7,35.45,7.66.63,15.32,1,23,1.42L28.84,257.24a6.23,6.23,0,0,0,11.83,3.89L61.75,207l2.39-1.08L56,239.94a6.23,6.23,0,0,0,5,7.26,6.4,6.4,0,0,0,1.15.11,6.21,6.21,0,0,0,6.1-5.08L78,199.71,104.4,187.4l29.86,16.7,9,38.13a6.22,6.22,0,0,0,6.11,5.08,5.59,5.59,0,0,0,1.14-.12,6.22,6.22,0,0,0,5-7.25l-7.12-28.23,3.92,2.11,20.21,47.43a6.22,6.22,0,1,0,11.73-4.13L142,147.32c5.43-.29,10.88-.51,16.29-.92,16.06-1.21,35.69-5.24,45.17-25.86,4.51-9.84,5.71-23.69,3.63-42.4a60.21,60.21,0,0,1,1.29-23.42c.86-3.11,1.85-6.64-.27-10.06Zm-84.3,103.42,2.83,15.22L104.9,173.51l-20-11.35,2.62-14.08c6.09.15,11.22.39,17.25.39,6.64,0,12.35-.21,19-.4ZM80.71,184.79,82.53,175l9.07,4.91Zm38-3.83L129,175.88l2.32,12.46Zm26.72,15-.62-3.32,1.3,3.7ZM194.77,79.57c1.79,16.12.91,28.15-2.59,35.78-5.41,11.79-15.49,17.19-34.79,18.65-17.8,1.33-34.83,2-52.6,2-19.58,0-38.61-.83-58.53-2.46-17-1.38-28.77-10.87-31.5-25.36-1.53-8.12-1-17.25-.48-26.1.24-4,.46-8,.52-11.91a55.27,55.27,0,0,0-1.29-10.92,66.92,66.92,0,0,1-1-6.65,64.12,64.12,0,0,1,8.82-1c1.08-.07,1.91-.13,2.36-.19,16.72-2.2,33.38-15.46,39.78-21l3.1-2.76c5.34-4.8,9.57-8.58,15.9-11a64.06,64.06,0,0,1,28.44-3.92c8,.58,18.39,2.68,27.66,9.35a40.48,40.48,0,0,1,4.8,4.34,52.8,52.8,0,0,0,6,5.37,142.69,142.69,0,0,0,22,13.8c6.94,3.41,13.72,4.53,20.28,5.61,1.52.26,3.07.51,4.64.8a72.43,72.43,0,0,0-1.51,27.63Z"/><path class="cls-1" d="M168.36,61a6.23,6.23,0,0,0-6.9,5.45c-1,8.78-1.47,9.75-1.47,17.32l0,3.39c.1,6.74.18,12.56-3,17.23-6.87,10.18-28.16,9.8-42.25,9.59-2.82,0-5.46-.09-7.8-.06-11.54.13-23.33-.65-34.48-1.46-7.53-.55-13.47-1-18-5.5-4.82-4.82-5.07-10.75-5.06-20.62a51.81,51.81,0,0,1,.42-5.56,57.25,57.25,0,0,0,.49-7.58c-.1-4.45-.57-2.94-1-6.75A6.22,6.22,0,0,0,37,67.9c.41,3.51.86,1.63.93,5.55a46.86,46.86,0,0,1-.41,5.94A65.11,65.11,0,0,0,37,86.9c0,9.44,0,20.13,8.71,28.85,7.77,7.78,17.39,8.48,25.91,9.11,11.36.83,23.45,1.62,35.48,1.49,2.24,0,4.76,0,7.45.06,2.52,0,5.17.09,7.9.09,16.5,0,35.73-1.62,44.88-15.15,5.34-7.91,5.22-16.65,5.11-24.37l0-3.22c0-7.06.41-7.61,1.39-15.87A6.24,6.24,0,0,0,168.36,61Z"/></g></g></svg>