<svg width="897" height="501" viewBox="0 0 897 501" fill="none" xmlns="http://www.w3.org/2000/svg">
<path d="M464.807 208C458.739 208 460.312 217.532 461.858 222.297C458.206 219.074 452.166 212.415 447.531 217.882C444.834 222.087 455.396 226.222 461.015 227.764C445.339 228.942 445.634 235.123 447.741 238.067C452.629 243.617 459.751 236.174 462.7 231.759C460.172 237.716 456.59 247.949 464.175 249C471.339 248.79 470.004 237.997 468.389 232.81C472.532 236.244 481.452 239.538 484.191 234.703C486.887 227.974 476.606 227.834 471.128 228.605C475.974 227.203 483.769 222.297 481.662 217.882C479.028 212.36 470.355 219.074 466.703 222.928C468.6 217.952 470.875 208 464.807 208Z" fill="white"/>
<path fill-rule="evenodd" clip-rule="evenodd" d="M465.377 211.005C465.46 211.087 465.46 211.22 465.377 211.303C465.291 211.389 465.195 211.575 465.105 211.883C465.017 212.183 464.943 212.569 464.882 213.023C464.761 213.932 464.694 215.094 464.665 216.347C464.607 218.85 464.702 221.693 464.807 223.547C464.813 223.663 464.725 223.762 464.608 223.769C464.492 223.775 464.393 223.687 464.386 223.571C464.281 221.71 464.185 218.855 464.244 216.337C464.273 215.079 464.34 213.899 464.465 212.968C464.527 212.502 464.604 212.094 464.7 211.765C464.794 211.446 464.913 211.171 465.08 211.005C465.162 210.923 465.295 210.923 465.377 211.005ZM455.487 221.144C457.396 222.141 459.105 223.39 460.098 224.24C460.187 224.316 460.197 224.449 460.121 224.537C460.046 224.625 459.913 224.635 459.824 224.56C458.851 223.727 457.168 222.496 455.292 221.517C453.408 220.533 451.364 219.821 449.657 219.984C449.542 219.995 449.439 219.91 449.428 219.794C449.417 219.679 449.502 219.576 449.617 219.565C451.45 219.391 453.585 220.151 455.487 221.144ZM479.549 219.721C479.578 219.834 479.511 219.948 479.398 219.978C477.493 220.474 475.252 221.685 473.213 223.01C471.178 224.332 469.363 225.756 468.316 226.661C468.228 226.737 468.095 226.728 468.019 226.64C467.943 226.552 467.952 226.42 468.04 226.344C469.1 225.427 470.93 223.991 472.983 222.657C475.031 221.326 477.319 220.084 479.292 219.571C479.404 219.542 479.519 219.609 479.549 219.721ZM460.163 230.225C460.197 230.336 460.134 230.454 460.023 230.488C458.665 230.905 456.518 231.72 454.504 232.806C452.481 233.897 450.633 235.24 449.822 236.697C449.765 236.798 449.637 236.835 449.535 236.779C449.433 236.722 449.397 236.594 449.453 236.493C450.328 234.922 452.272 233.532 454.304 232.436C456.346 231.335 458.519 230.51 459.899 230.086C460.011 230.052 460.128 230.114 460.163 230.225ZM469.669 231.048C469.713 230.941 469.836 230.89 469.944 230.934C471.124 231.419 473.174 232.077 475.472 232.466C477.773 232.857 480.301 232.974 482.45 232.397C482.563 232.367 482.678 232.433 482.709 232.545C482.739 232.657 482.672 232.773 482.56 232.803C480.327 233.403 477.729 233.276 475.401 232.881C473.071 232.486 470.991 231.819 469.784 231.323C469.676 231.278 469.625 231.156 469.669 231.048ZM465.21 233.652C465.326 233.642 465.428 233.728 465.438 233.843C465.58 235.463 465.685 238.038 465.544 240.507C465.474 241.741 465.341 242.954 465.119 244.009C464.897 245.059 464.583 245.975 464.136 246.599C464.068 246.694 463.937 246.715 463.842 246.648C463.747 246.581 463.725 246.449 463.793 246.355C464.189 245.802 464.489 244.954 464.706 243.922C464.923 242.895 465.054 241.705 465.124 240.483C465.263 238.039 465.158 235.484 465.019 233.88C465.009 233.764 465.094 233.662 465.21 233.652Z" fill="#CDCDCD"/>
<ellipse cx="465.038" cy="227.554" rx="2.31759" ry="2.31282" fill="#CDCDCD"/>
<ellipse cx="465.038" cy="227.554" rx="1.05345" ry="1.05128" fill="#9B9B9B"/>
<g style="mix-blend-mode:multiply">
<path d="M464.807 208C458.739 208 460.312 217.532 461.858 222.297C458.206 219.074 452.166 212.415 447.531 217.882C444.834 222.087 455.396 226.222 461.015 227.764C445.339 228.942 445.634 235.123 447.741 238.067C452.629 243.617 459.751 236.174 462.7 231.759C460.172 237.716 456.59 247.949 464.175 249C471.339 248.79 470.004 237.997 468.389 232.81C472.532 236.244 481.452 239.538 484.191 234.703C486.887 227.974 476.606 227.834 471.128 228.605C475.974 227.203 483.769 222.297 481.662 217.882C479.028 212.36 470.355 219.074 466.703 222.928C468.6 217.952 470.875 208 464.807 208Z" fill="#F3AC46"/>
<path fill-rule="evenodd" clip-rule="evenodd" d="M465.377 211.005C465.46 211.087 465.46 211.22 465.377 211.303C465.291 211.389 465.195 211.575 465.105 211.883C465.017 212.183 464.943 212.569 464.882 213.023C464.761 213.932 464.694 215.094 464.665 216.347C464.607 218.85 464.702 221.693 464.807 223.547C464.813 223.663 464.725 223.762 464.608 223.769C464.492 223.775 464.393 223.687 464.386 223.571C464.281 221.71 464.185 218.855 464.244 216.337C464.273 215.079 464.34 213.899 464.465 212.968C464.527 212.502 464.604 212.094 464.7 211.765C464.794 211.446 464.913 211.171 465.08 211.005C465.162 210.923 465.295 210.923 465.377 211.005ZM455.487 221.144C457.396 222.141 459.105 223.39 460.098 224.24C460.187 224.316 460.197 224.449 460.121 224.537C460.046 224.625 459.913 224.635 459.824 224.56C458.851 223.727 457.168 222.496 455.292 221.517C453.408 220.533 451.364 219.821 449.657 219.984C449.542 219.995 449.439 219.91 449.428 219.794C449.417 219.679 449.502 219.576 449.617 219.565C451.45 219.391 453.585 220.151 455.487 221.144ZM479.549 219.721C479.578 219.834 479.511 219.948 479.398 219.978C477.493 220.474 475.252 221.685 473.213 223.01C471.178 224.332 469.363 225.756 468.316 226.661C468.228 226.737 468.095 226.728 468.019 226.64C467.943 226.552 467.952 226.42 468.04 226.344C469.1 225.427 470.93 223.991 472.983 222.657C475.031 221.326 477.319 220.084 479.292 219.571C479.404 219.542 479.519 219.609 479.549 219.721ZM460.163 230.225C460.197 230.336 460.134 230.454 460.023 230.488C458.665 230.905 456.518 231.72 454.504 232.806C452.481 233.897 450.633 235.24 449.822 236.697C449.765 236.798 449.637 236.835 449.535 236.779C449.433 236.722 449.397 236.594 449.453 236.493C450.328 234.922 452.272 233.532 454.304 232.436C456.346 231.335 458.519 230.51 459.899 230.086C460.011 230.052 460.128 230.114 460.163 230.225ZM469.669 231.048C469.713 230.941 469.836 230.89 469.944 230.934C471.124 231.419 473.174 232.077 475.472 232.466C477.773 232.857 480.301 232.974 482.45 232.397C482.563 232.367 482.678 232.433 482.709 232.545C482.739 232.657 482.672 232.773 482.56 232.803C480.327 233.403 477.729 233.276 475.401 232.881C473.071 232.486 470.991 231.819 469.784 231.323C469.676 231.278 469.625 231.156 469.669 231.048ZM465.21 233.652C465.326 233.642 465.428 233.728 465.438 233.843C465.58 235.463 465.685 238.038 465.544 240.507C465.474 241.741 465.341 242.954 465.119 244.009C464.897 245.059 464.583 245.975 464.136 246.599C464.068 246.694 463.937 246.715 463.842 246.648C463.747 246.581 463.725 246.449 463.793 246.355C464.189 245.802 464.489 244.954 464.706 243.922C464.923 242.895 465.054 241.705 465.124 240.483C465.263 238.039 465.158 235.484 465.019 233.88C465.009 233.764 465.094 233.662 465.21 233.652Z" fill="#F3AC46"/>
<ellipse cx="465.038" cy="227.554" rx="2.31759" ry="2.31282" fill="#F3AC46"/>
<ellipse cx="465.038" cy="227.554" rx="1.05345" ry="1.05128" fill="#F3AC46"/>
</g>
<g style="mix-blend-mode:soft-light">
<path d="M464.807 208C458.739 208 460.312 217.532 461.858 222.297C458.206 219.074 452.166 212.415 447.531 217.882C444.834 222.087 455.396 226.222 461.015 227.764C445.339 228.942 445.634 235.123 447.741 238.067C452.629 243.617 459.751 236.174 462.7 231.759C460.172 237.716 456.59 247.949 464.175 249C471.339 248.79 470.004 237.997 468.389 232.81C472.532 236.244 481.452 239.538 484.191 234.703C486.887 227.974 476.606 227.834 471.128 228.605C475.974 227.203 483.769 222.297 481.662 217.882C479.028 212.36 470.355 219.074 466.703 222.928C468.6 217.952 470.875 208 464.807 208Z" fill="#F3AC46"/>
<path fill-rule="evenodd" clip-rule="evenodd" d="M465.377 211.005C465.46 211.087 465.46 211.22 465.377 211.303C465.291 211.389 465.195 211.575 465.105 211.883C465.017 212.183 464.943 212.569 464.882 213.023C464.761 213.932 464.694 215.094 464.665 216.347C464.607 218.85 464.702 221.693 464.807 223.547C464.813 223.663 464.725 223.762 464.608 223.769C464.492 223.775 464.393 223.687 464.386 223.571C464.281 221.71 464.185 218.855 464.244 216.337C464.273 215.079 464.34 213.899 464.465 212.968C464.527 212.502 464.604 212.094 464.7 211.765C464.794 211.446 464.913 211.171 465.08 211.005C465.162 210.923 465.295 210.923 465.377 211.005ZM455.487 221.144C457.396 222.141 459.105 223.39 460.098 224.24C460.187 224.316 460.197 224.449 460.121 224.537C460.046 224.625 459.913 224.635 459.824 224.56C458.851 223.727 457.168 222.496 455.292 221.517C453.408 220.533 451.364 219.821 449.657 219.984C449.542 219.995 449.439 219.91 449.428 219.794C449.417 219.679 449.502 219.576 449.617 219.565C451.45 219.391 453.585 220.151 455.487 221.144ZM479.549 219.721C479.578 219.834 479.511 219.948 479.398 219.978C477.493 220.474 475.252 221.685 473.213 223.01C471.178 224.332 469.363 225.756 468.316 226.661C468.228 226.737 468.095 226.728 468.019 226.64C467.943 226.552 467.952 226.42 468.04 226.344C469.1 225.427 470.93 223.991 472.983 222.657C475.031 221.326 477.319 220.084 479.292 219.571C479.404 219.542 479.519 219.609 479.549 219.721ZM460.163 230.225C460.197 230.336 460.134 230.454 460.023 230.488C458.665 230.905 456.518 231.72 454.504 232.806C452.481 233.897 450.633 235.24 449.822 236.697C449.765 236.798 449.637 236.835 449.535 236.779C449.433 236.722 449.397 236.594 449.453 236.493C450.328 234.922 452.272 233.532 454.304 232.436C456.346 231.335 458.519 230.51 459.899 230.086C460.011 230.052 460.128 230.114 460.163 230.225ZM469.669 231.048C469.713 230.941 469.836 230.89 469.944 230.934C471.124 231.419 473.174 232.077 475.472 232.466C477.773 232.857 480.301 232.974 482.45 232.397C482.563 232.367 482.678 232.433 482.709 232.545C482.739 232.657 482.672 232.773 482.56 232.803C480.327 233.403 477.729 233.276 475.401 232.881C473.071 232.486 470.991 231.819 469.784 231.323C469.676 231.278 469.625 231.156 469.669 231.048ZM465.21 233.652C465.326 233.642 465.428 233.728 465.438 233.843C465.58 235.463 465.685 238.038 465.544 240.507C465.474 241.741 465.341 242.954 465.119 244.009C464.897 245.059 464.583 245.975 464.136 246.599C464.068 246.694 463.937 246.715 463.842 246.648C463.747 246.581 463.725 246.449 463.793 246.355C464.189 245.802 464.489 244.954 464.706 243.922C464.923 242.895 465.054 241.705 465.124 240.483C465.263 238.039 465.158 235.484 465.019 233.88C465.009 233.764 465.094 233.662 465.21 233.652Z" fill="#F3AC46"/>
<ellipse cx="465.038" cy="227.554" rx="2.31759" ry="2.31282" fill="#F3AC46"/>
<ellipse cx="465.038" cy="227.554" rx="1.05345" ry="1.05128" fill="#F3AC46"/>
</g>
<path d="M472.173 259.376C470.692 258.376 469.312 257.61 468.172 257.284C467.878 255.514 466.805 251.754 464.568 247.243C463.423 244.936 461.974 242.433 460.169 239.899C457.463 236.1 458.271 232.191 461.211 229.2C462.559 227.829 464.356 226.65 466.468 225.763C467.978 225.129 469.648 224.645 471.432 224.345C472.736 224.126 474.102 224.007 475.508 224C476.933 223.994 478.4 224.104 479.889 224.345C481.085 224.539 482.296 224.818 483.511 225.188C484.672 225.543 485.784 225.97 486.845 226.463C488.131 227.061 489.341 227.754 490.474 228.531C491.559 229.276 492.574 230.098 493.514 230.985C494.471 231.887 495.351 232.856 496.152 233.881C496.794 234.702 497.386 235.559 497.926 236.445C498.67 237.665 499.316 238.941 499.86 240.257C500.528 241.871 501.044 243.544 501.401 245.248C501.732 246.825 501.928 248.427 501.983 250.032C502.042 251.712 501.947 253.394 501.693 255.052C501.468 256.519 501.12 257.966 500.644 259.376C500.502 259.796 500.348 260.214 500.183 260.627C498.519 264.798 496.679 267.38 494.848 268.906C490.808 272.274 486.812 270.503 484.844 269.319C482.325 267.803 476.758 262.469 472.173 259.376Z" fill="#2E7A48"/>
<g style="mix-blend-mode:multiply">
<path d="M470.987 224.424C471.134 224.397 471.283 224.37 471.432 224.345C471.563 224.323 471.695 224.302 471.827 224.282C471.837 224.343 471.832 224.407 471.812 224.469C470.477 228.591 470.584 234.094 471.283 239.339C471.976 244.545 473.245 249.442 474.206 252.371C477.649 254.055 482.963 256.347 488.044 257.91C490.65 258.712 493.182 259.317 495.361 259.554C497.557 259.793 499.322 259.648 500.451 259.024C500.552 258.968 500.667 258.961 500.769 258.995C500.728 259.122 500.686 259.249 500.644 259.376C500.583 259.556 500.52 259.736 500.455 259.915C499.123 260.494 497.305 260.573 495.275 260.352C493.025 260.108 490.44 259.486 487.809 258.677C482.547 257.058 477.049 254.67 473.591 252.963C473.405 252.871 473.322 252.653 473.393 252.462C472.426 249.475 471.178 244.612 470.489 239.445C469.798 234.252 469.663 228.696 470.987 224.424Z" fill="#2E7A48"/>
<path d="M466.038 225.95C466.18 225.886 466.323 225.824 466.468 225.763C466.591 225.712 466.714 225.661 466.839 225.612C466.865 225.675 466.875 225.747 466.864 225.82C465.009 238.826 468.789 250.361 470.984 254.678C471.014 254.69 471.043 254.705 471.07 254.724C473.941 256.755 478.751 259.671 483.833 261.811C486.373 262.88 488.971 263.752 491.422 264.224C493.877 264.697 496.159 264.765 498.08 264.251C498.211 264.216 498.345 264.251 498.442 264.333C498.294 264.599 498.145 264.854 497.996 265.099C495.982 265.574 493.674 265.475 491.271 265.012C488.749 264.526 486.095 263.634 483.523 262.55C478.439 260.41 473.633 257.506 470.713 255.453C470.574 255.448 470.442 255.371 470.372 255.239C468.144 250.982 464.21 239.246 466.038 225.95Z" fill="#2E7A48"/>
<path d="M460.758 229.688C460.903 229.523 461.054 229.36 461.211 229.2C461.304 229.105 461.399 229.012 461.497 228.919C461.579 229.003 461.624 229.122 461.609 229.248C461.233 232.391 461.702 236.015 462.452 239.286C463.202 242.553 464.225 245.436 464.935 247.084C465.02 247.281 464.935 247.509 464.745 247.603C464.686 247.484 464.628 247.364 464.568 247.243C464.123 246.346 463.632 245.419 463.092 244.472C462.6 243.018 462.094 241.301 461.672 239.466C460.954 236.335 460.476 232.83 460.758 229.688Z" fill="#2E7A48"/>
<path d="M477.688 263.61C475.858 262.097 473.943 260.569 472.173 259.376C472.062 259.3 471.951 259.226 471.84 259.154C471.844 259.148 471.848 259.142 471.853 259.136C471.985 258.958 472.235 258.922 472.413 259.054C475.178 261.121 479.625 264.075 483.971 266.218C486.145 267.289 488.278 268.151 490.154 268.6C492.045 269.053 493.601 269.069 494.673 268.546C494.84 268.464 495.035 268.51 495.151 268.644C495.05 268.735 494.949 268.822 494.848 268.906C494.512 269.187 494.176 269.431 493.841 269.644C492.71 269.848 491.381 269.719 489.968 269.38C488.011 268.912 485.818 268.022 483.618 266.938C481.602 265.944 479.569 264.78 477.688 263.61Z" fill="#2E7A48"/>
<path d="M501.614 255.538C500.361 256.105 498.637 256.235 496.708 256.102C494.622 255.958 492.23 255.501 489.799 254.884C484.937 253.65 479.869 251.763 476.685 250.401L476.5 250.322L476.453 250.127C475.782 247.356 474.911 242.73 474.476 237.84C474.046 233.007 474.036 227.87 475.091 224.005C475.23 224.003 475.369 224.001 475.508 224C475.641 224 475.774 224 475.908 224.002C475.908 224.037 475.903 224.073 475.893 224.109C474.847 227.84 474.841 232.911 475.273 237.768C475.694 242.502 476.528 246.986 477.184 249.742C480.35 251.086 485.276 252.908 489.996 254.106C492.402 254.717 494.743 255.162 496.763 255.301C498.798 255.442 500.442 255.267 501.504 254.698C501.583 254.656 501.669 254.643 501.751 254.655C501.732 254.788 501.713 254.92 501.693 255.052C501.668 255.214 501.642 255.376 501.614 255.538Z" fill="#2E7A48"/>
<path d="M501.967 249.631C501.973 249.765 501.979 249.898 501.983 250.032C501.989 250.187 501.993 250.341 501.996 250.496C501.647 250.681 501.197 250.794 500.7 250.861C500.077 250.946 499.324 250.967 498.483 250.939C496.799 250.883 494.718 250.632 492.523 250.279C488.132 249.572 483.241 248.45 480.076 247.632L479.842 247.571L479.787 247.334C478.92 243.619 477.654 233.838 479.493 224.284C479.625 224.304 479.757 224.324 479.889 224.345C480.021 224.367 480.152 224.389 480.284 224.412C480.283 224.415 480.283 224.418 480.282 224.421C478.503 233.644 479.666 243.107 480.512 246.915C483.665 247.724 488.398 248.802 492.65 249.487C494.831 249.838 496.875 250.083 498.509 250.137C499.327 250.164 500.031 250.143 500.593 250.066C501.167 249.988 501.543 249.859 501.747 249.709C501.813 249.66 501.89 249.634 501.967 249.631Z" fill="#2E7A48"/>
<path d="M501.316 244.856C501.345 244.986 501.374 245.117 501.401 245.248C501.431 245.39 501.46 245.533 501.488 245.676C501.396 245.728 501.297 245.768 501.199 245.8C501.025 245.857 500.822 245.9 500.6 245.931C500.155 245.994 499.595 246.02 498.957 246.017C497.678 246.011 496.038 245.893 494.28 245.714C490.761 245.356 486.731 244.753 484.094 244.306L483.777 244.252L483.761 243.93C483.652 241.664 483.656 238.071 484.024 234.642C484.207 232.927 484.483 231.243 484.884 229.783C485.27 228.38 485.781 227.146 486.468 226.291C486.594 226.348 486.72 226.405 486.845 226.463C486.967 226.519 487.087 226.577 487.207 226.635C487.193 226.666 487.174 226.695 487.151 226.722C486.54 227.446 486.044 228.583 485.656 229.996C485.27 231.4 485 233.037 484.819 234.727C484.474 237.948 484.454 241.325 484.546 243.569C487.171 244.007 491.003 244.574 494.36 244.916C496.109 245.093 497.72 245.209 498.96 245.214C499.581 245.217 500.098 245.192 500.487 245.137C500.682 245.109 500.835 245.075 500.95 245.038C501.069 244.998 501.118 244.964 501.13 244.953C501.185 244.903 501.249 244.87 501.316 244.856Z" fill="#2E7A48"/>
<path d="M499.691 239.856C499.748 239.989 499.805 240.123 499.86 240.257C499.912 240.381 499.962 240.505 500.011 240.629C499.965 240.648 499.914 240.659 499.86 240.659H488.056L490.079 228.466C490.089 228.407 490.111 228.354 490.142 228.308C490.253 228.381 490.364 228.456 490.474 228.531C490.596 228.615 490.717 228.7 490.837 228.786L489.001 239.856H499.691Z" fill="#2E7A48"/>
<path d="M497.677 236.044C497.761 236.177 497.844 236.31 497.926 236.445C497.996 236.559 498.065 236.674 498.133 236.789C498.072 236.825 498.002 236.846 497.926 236.846H493.087C492.866 236.846 492.686 236.666 492.686 236.445C492.686 236.37 492.707 236.301 492.742 236.241L493.115 230.957C493.122 230.862 493.161 230.777 493.221 230.713C493.319 230.803 493.417 230.894 493.514 230.985C493.641 231.104 493.766 231.225 493.89 231.347L493.558 236.044H497.677Z" fill="#2E7A48"/>
</g>
<path d="M493.559 236.921L496.558 234.413C496.425 234.234 496.29 234.056 496.152 233.881C496.015 233.705 495.876 233.532 495.734 233.36L495.725 233.367L492.704 235.894C492.704 235.894 492.704 235.894 492.704 235.894C492.697 235.9 492.689 235.907 492.682 235.913C492.674 235.919 492.667 235.925 492.659 235.931L467.711 256.799L453.009 272.88C452.76 273.152 452.778 273.575 453.05 273.824C453.321 274.074 453.743 274.055 453.992 273.783L468.633 257.768L468.907 257.54C468.907 257.54 468.907 257.54 468.907 257.54L493.514 236.958C493.521 236.952 493.529 236.946 493.536 236.939C493.543 236.933 493.551 236.927 493.559 236.921Z" fill="#2E7A48"/>
<g style="mix-blend-mode:multiply">
<path fill-rule="evenodd" clip-rule="evenodd" d="M496.557 234.413L493.559 236.921C493.551 236.927 493.543 236.933 493.536 236.939C493.529 236.946 493.521 236.952 493.514 236.958L468.907 257.54L468.907 257.54C468.652 257.437 468.407 257.351 468.172 257.284C468.135 257.064 468.087 256.814 468.026 256.535L492.659 235.931C492.667 235.925 492.674 235.919 492.682 235.913C492.689 235.907 492.697 235.9 492.704 235.894L495.725 233.367L495.734 233.36C495.876 233.532 496.015 233.705 496.152 233.881C496.29 234.056 496.425 234.234 496.557 234.413Z" fill="#2E7A48"/>
</g>
<circle cx="580" cy="59" r="55" fill="#D8D8D8"/>
<circle cx="577" cy="55" r="55" fill="#F3F3F3"/>
<path fill-rule="evenodd" clip-rule="evenodd" d="M614.118 30L616 32.8492L567.882 66L566 63.1508L614.118 30Z" fill="#474747"/>
<path fill-rule="evenodd" clip-rule="evenodd" d="M552 42.7792L554.02 40L586 63.2208L583.98 66L552 42.7792Z" fill="#474747"/>
<ellipse cx="138" cy="489" rx="121" ry="7" fill="#D8D8D8"/>
<path fill-rule="evenodd" clip-rule="evenodd" d="M167.275 340H186.275L141.275 489.937H134.275L167.275 340Z" fill="#8D5219"/>
<path fill-rule="evenodd" clip-rule="evenodd" d="M139.275 489.937H143.275L188.275 340H184.275L139.275 489.937Z" fill="#7C4612"/>
<path fill-rule="evenodd" clip-rule="evenodd" d="M218 341.063H199L244 491H251L218 341.063Z" fill="#8D5219"/>
<path fill-rule="evenodd" clip-rule="evenodd" d="M247 491H251L218 341.063H214L247 491Z" fill="#7C4612"/>
<path fill-rule="evenodd" clip-rule="evenodd" d="M136 337.253L250.72 328.707L251.417 339.334L136.698 347.881L136 337.253Z" fill="#AB6C2C"/>
<path fill-rule="evenodd" clip-rule="evenodd" d="M240.744 329.45L250.72 328.707L251.417 339.334L241.442 340.078L240.744 329.45Z" fill="#824D18"/>
<path d="M409 281C409 277.134 412.134 274 416 274H476C479.866 274 483 277.134 483 281V323C483 337.359 471.359 349 457 349H435C420.641 349 409 337.359 409 323V281Z" fill="#F3F3F3"/>
<path fill-rule="evenodd" clip-rule="evenodd" d="M449 349H457C471.359 349 483 337.359 483 323V281C483 277.134 479.866 274 476 274H468C471.866 274 475 277.134 475 281V323C475 337.359 463.359 349 449 349Z" fill="#F2F2F2"/>
<path fill-rule="evenodd" clip-rule="evenodd" d="M371.102 353H390L346.016 491.561C345.555 493.014 344.207 494 342.683 494C340.432 494 338.767 491.903 339.278 489.711L371.102 353Z" fill="#8D5219"/>
<ellipse cx="432" cy="491.5" rx="121" ry="9.5" fill="#D8D8D8"/>
<path fill-rule="evenodd" clip-rule="evenodd" d="M0.274965 213.077C-0.218788 205.588 5.71401 199.237 13.2194 199.222L115.572 199.006C121.4 198.994 126.524 202.861 128.109 208.469L173.34 368.463C175.686 376.76 169.452 385 160.83 385H23.7808C16.9331 385 11.2595 379.688 10.809 372.855L0.274965 213.077Z" fill="#FEB63B"/>
<rect x="11" y="370" width="216" height="34" rx="5" fill="#FFC055"/>
<path fill-rule="evenodd" clip-rule="evenodd" d="M50.2754 343H69.2754L24.2754 492.937H17.2754L50.2754 343Z" fill="#8D5219"/>
<path fill-rule="evenodd" clip-rule="evenodd" d="M22.2754 492.937H26.2754L71.2754 343H67.2754L22.2754 492.937Z" fill="#7C4612"/>
<path fill-rule="evenodd" clip-rule="evenodd" d="M101 344.063H82L127 494H134L101 344.063Z" fill="#8D5219"/>
<path fill-rule="evenodd" clip-rule="evenodd" d="M130 494H134L101 344.063H97L130 494Z" fill="#7C4612"/>
<path fill-rule="evenodd" clip-rule="evenodd" d="M19 340.253L133.72 331.707L134.417 342.334L19.6976 350.881L19 340.253Z" fill="#AB6C2C"/>
<path fill-rule="evenodd" clip-rule="evenodd" d="M123.744 332.45L133.72 331.707L134.417 342.334L124.442 343.078L123.744 332.45Z" fill="#824D18"/>
<ellipse rx="121" ry="7" transform="matrix(-1 0 0 1 776 489)" fill="#D8D8D8"/>
<path fill-rule="evenodd" clip-rule="evenodd" d="M719.725 340H700.725L745.725 489.937H752.725L719.725 340Z" fill="#8D5219"/>
<path fill-rule="evenodd" clip-rule="evenodd" d="M747.725 489.937H743.725L698.725 340H702.725L747.725 489.937Z" fill="#7C4612"/>
<path fill-rule="evenodd" clip-rule="evenodd" d="M669 341.063H688L643 491H636L669 341.063Z" fill="#8D5219"/>
<path fill-rule="evenodd" clip-rule="evenodd" d="M640 491H636L669 341.063H673L640 491Z" fill="#7C4612"/>
<path fill-rule="evenodd" clip-rule="evenodd" d="M751 337.253L636.28 328.707L635.583 339.334L750.302 347.881L751 337.253Z" fill="#AB6C2C"/>
<path fill-rule="evenodd" clip-rule="evenodd" d="M646.256 329.45L636.28 328.707L635.583 339.334L645.558 340.078L646.256 329.45Z" fill="#824D18"/>
<path fill-rule="evenodd" clip-rule="evenodd" d="M864.725 213.077C865.219 205.588 859.286 199.237 851.781 199.222L749.428 199.006C743.6 198.994 738.476 202.861 736.891 208.469L691.66 368.463C689.314 376.76 695.548 385 704.17 385H841.219C848.067 385 853.741 379.688 854.191 372.855L864.725 213.077Z" fill="#FEB63B"/>
<rect width="216" height="34" rx="5" transform="matrix(-1 0 0 1 854 370)" fill="#FFC055"/>
<path fill-rule="evenodd" clip-rule="evenodd" d="M832.725 343H813.725L858.725 492.937H865.725L832.725 343Z" fill="#8D5219"/>
<path fill-rule="evenodd" clip-rule="evenodd" d="M860.725 492.937H856.725L811.725 343H815.725L860.725 492.937Z" fill="#7C4612"/>
<path fill-rule="evenodd" clip-rule="evenodd" d="M782 344.063H801L756 494H749L782 344.063Z" fill="#8D5219"/>
<path fill-rule="evenodd" clip-rule="evenodd" d="M753 494H749L782 344.063H786L753 494Z" fill="#7C4612"/>
<path fill-rule="evenodd" clip-rule="evenodd" d="M864 340.253L749.28 331.707L748.583 342.334L863.302 350.881L864 340.253Z" fill="#AB6C2C"/>
<path fill-rule="evenodd" clip-rule="evenodd" d="M759.256 332.45L749.28 331.707L748.583 342.334L758.558 343.078L759.256 332.45Z" fill="#824D18"/>
<path fill-rule="evenodd" clip-rule="evenodd" d="M356 460.785L346.07 491.562C345.601 493.015 344.248 494 342.722 494C340.452 494 338.776 491.881 339.299 489.672L346.792 458L356 460.785Z" fill="#D1A65C"/>
<path fill-rule="evenodd" clip-rule="evenodd" d="M433 353H452L445.883 487.511C445.794 489.463 444.186 491 442.232 491C440.272 491 438.66 489.454 438.579 487.496L433 353Z" fill="#8D5219"/>
<path fill-rule="evenodd" clip-rule="evenodd" d="M447 463L445.923 487.678C445.841 489.536 444.312 491 442.453 491C440.588 491 439.057 489.528 438.982 487.665L438 463H447Z" fill="#D1A65C"/>
<path fill-rule="evenodd" clip-rule="evenodd" d="M514.898 353H496L539.984 491.561C540.445 493.014 541.793 494 543.317 494C545.568 494 547.233 491.903 546.722 489.711L514.898 353Z" fill="#8D5219"/>
<rect x="319" y="349" width="243" height="7" rx="2.5" fill="#A4DDD5"/>
<rect x="351" y="356" width="183" height="6" rx="2.5" fill="#75471A"/>
<path fill-rule="evenodd" clip-rule="evenodd" d="M539.283 459L530 461.655L539.882 492.535C540.351 494.004 541.716 495 543.258 495C545.543 495 547.231 492.87 546.709 490.645L539.283 459Z" fill="#D1A65C"/>
<path d="M416.827 259.376C418.308 258.376 419.688 257.61 420.828 257.284C421.122 255.514 422.195 251.754 424.432 247.243C425.577 244.936 427.026 242.433 428.831 239.899C431.537 236.1 430.729 232.191 427.789 229.2C426.441 227.829 424.644 226.65 422.532 225.763C421.022 225.129 419.352 224.645 417.568 224.345C416.264 224.126 414.898 224.007 413.492 224C412.067 223.994 410.6 224.104 409.111 224.345C407.915 224.539 406.704 224.818 405.489 225.188C404.328 225.543 403.216 225.97 402.155 226.463C400.869 227.061 399.659 227.754 398.526 228.531C397.441 229.276 396.426 230.098 395.486 230.985C394.529 231.887 393.649 232.856 392.848 233.881C392.206 234.702 391.614 235.559 391.074 236.445C390.33 237.665 389.684 238.941 389.14 240.257C388.472 241.871 387.956 243.544 387.599 245.248C387.268 246.825 387.072 248.427 387.017 250.032C386.958 251.712 387.053 253.394 387.307 255.052C387.532 256.519 387.88 257.966 388.356 259.376C388.498 259.796 388.652 260.214 388.817 260.627C390.481 264.798 392.321 267.38 394.152 268.906C398.192 272.274 402.188 270.503 404.156 269.319C406.675 267.803 412.242 262.469 416.827 259.376Z" fill="#2E7A48"/>
<g style="mix-blend-mode:multiply">
<path d="M418.013 224.424C417.866 224.397 417.717 224.37 417.568 224.345C417.437 224.323 417.305 224.302 417.173 224.282C417.163 224.343 417.168 224.407 417.188 224.469C418.523 228.591 418.416 234.094 417.717 239.339C417.024 244.545 415.755 249.442 414.794 252.371C411.351 254.055 406.037 256.347 400.956 257.91C398.35 258.712 395.818 259.317 393.639 259.554C391.443 259.793 389.678 259.648 388.549 259.024C388.448 258.968 388.333 258.961 388.231 258.995C388.272 259.122 388.314 259.249 388.356 259.376C388.417 259.556 388.48 259.736 388.545 259.915C389.877 260.494 391.695 260.573 393.725 260.352C395.975 260.108 398.56 259.486 401.191 258.677C406.453 257.058 411.951 254.67 415.409 252.963C415.595 252.871 415.678 252.653 415.607 252.462C416.574 249.475 417.822 244.612 418.511 239.445C419.202 234.252 419.337 228.696 418.013 224.424Z" fill="#2E7A48"/>
<path d="M422.962 225.95C422.82 225.886 422.677 225.824 422.532 225.763C422.409 225.712 422.286 225.661 422.161 225.612C422.135 225.675 422.125 225.747 422.136 225.82C423.991 238.826 420.211 250.361 418.016 254.678C417.986 254.69 417.957 254.705 417.93 254.724C415.059 256.755 410.249 259.671 405.167 261.811C402.627 262.88 400.029 263.752 397.578 264.224C395.123 264.697 392.841 264.765 390.92 264.251C390.789 264.216 390.655 264.251 390.558 264.333C390.706 264.599 390.855 264.854 391.004 265.099C393.018 265.574 395.326 265.475 397.729 265.012C400.251 264.526 402.905 263.634 405.477 262.55C410.561 260.41 415.367 257.506 418.287 255.453C418.426 255.448 418.558 255.371 418.628 255.239C420.856 250.982 424.79 239.246 422.962 225.95Z" fill="#2E7A48"/>
<path d="M428.242 229.688C428.097 229.523 427.946 229.36 427.789 229.2C427.696 229.105 427.601 229.012 427.503 228.919C427.421 229.003 427.376 229.122 427.391 229.248C427.767 232.391 427.298 236.015 426.548 239.286C425.798 242.553 424.775 245.436 424.065 247.084C423.98 247.281 424.065 247.509 424.255 247.603C424.314 247.484 424.372 247.364 424.432 247.243C424.877 246.346 425.368 245.419 425.908 244.472C426.4 243.018 426.906 241.301 427.328 239.466C428.046 236.335 428.524 232.83 428.242 229.688Z" fill="#2E7A48"/>
<path d="M411.312 263.61C413.142 262.097 415.057 260.569 416.827 259.376C416.938 259.3 417.049 259.226 417.16 259.154C417.156 259.148 417.152 259.142 417.147 259.136C417.015 258.958 416.765 258.922 416.587 259.054C413.822 261.121 409.375 264.075 405.029 266.218C402.855 267.289 400.722 268.151 398.846 268.6C396.955 269.053 395.399 269.069 394.327 268.546C394.16 268.464 393.965 268.51 393.849 268.644C393.95 268.735 394.051 268.822 394.152 268.906C394.488 269.187 394.824 269.431 395.159 269.644C396.29 269.848 397.619 269.719 399.032 269.38C400.989 268.912 403.182 268.022 405.382 266.938C407.398 265.944 409.431 264.78 411.312 263.61Z" fill="#2E7A48"/>
<path d="M387.386 255.538C388.639 256.105 390.363 256.235 392.292 256.102C394.378 255.958 396.77 255.501 399.201 254.884C404.063 253.65 409.131 251.763 412.315 250.401L412.5 250.322L412.547 250.127C413.218 247.356 414.089 242.73 414.524 237.84C414.954 233.007 414.964 227.87 413.909 224.005C413.77 224.003 413.631 224.001 413.492 224C413.359 224 413.226 224 413.092 224.002C413.092 224.037 413.097 224.073 413.107 224.109C414.153 227.84 414.159 232.911 413.727 237.768C413.306 242.502 412.472 246.986 411.816 249.742C408.65 251.086 403.724 252.908 399.004 254.106C396.598 254.717 394.257 255.162 392.237 255.301C390.202 255.442 388.558 255.267 387.496 254.698C387.417 254.656 387.331 254.643 387.249 254.655C387.268 254.788 387.287 254.92 387.307 255.052C387.332 255.214 387.358 255.376 387.386 255.538Z" fill="#2E7A48"/>
<path d="M387.033 249.631C387.027 249.765 387.021 249.898 387.017 250.032C387.011 250.187 387.007 250.341 387.004 250.496C387.353 250.681 387.803 250.794 388.3 250.861C388.923 250.946 389.676 250.967 390.517 250.939C392.201 250.883 394.282 250.632 396.477 250.279C400.868 249.572 405.759 248.45 408.924 247.632L409.158 247.571L409.213 247.334C410.08 243.619 411.346 233.838 409.507 224.284C409.375 224.304 409.243 224.324 409.111 224.345C408.979 224.367 408.848 224.389 408.716 224.412C408.717 224.415 408.717 224.418 408.718 224.421C410.497 233.644 409.334 243.107 408.488 246.915C405.335 247.724 400.602 248.802 396.35 249.487C394.169 249.838 392.125 250.083 390.491 250.137C389.673 250.164 388.969 250.143 388.407 250.066C387.833 249.988 387.457 249.859 387.253 249.709C387.187 249.66 387.11 249.634 387.033 249.631Z" fill="#2E7A48"/>
<path d="M387.684 244.856C387.655 244.986 387.626 245.117 387.599 245.248C387.569 245.39 387.54 245.533 387.512 245.676C387.604 245.728 387.703 245.768 387.801 245.8C387.975 245.857 388.178 245.9 388.4 245.931C388.845 245.994 389.405 246.02 390.043 246.017C391.322 246.011 392.962 245.893 394.72 245.714C398.239 245.356 402.269 244.753 404.906 244.306L405.223 244.252L405.239 243.93C405.348 241.664 405.344 238.071 404.976 234.642C404.793 232.927 404.517 231.243 404.116 229.783C403.73 228.38 403.219 227.146 402.532 226.291C402.406 226.348 402.28 226.405 402.155 226.463C402.033 226.519 401.913 226.577 401.793 226.635C401.807 226.666 401.826 226.695 401.849 226.722C402.46 227.446 402.956 228.583 403.344 229.996C403.73 231.4 404 233.037 404.181 234.727C404.526 237.948 404.546 241.325 404.454 243.569C401.829 244.007 397.997 244.574 394.64 244.916C392.891 245.093 391.28 245.209 390.04 245.214C389.419 245.217 388.902 245.192 388.513 245.137C388.318 245.109 388.165 245.075 388.05 245.038C387.931 244.998 387.882 244.964 387.87 244.953C387.815 244.903 387.751 244.87 387.684 244.856Z" fill="#2E7A48"/>
<path d="M389.309 239.856C389.252 239.989 389.195 240.123 389.14 240.257C389.088 240.381 389.038 240.505 388.989 240.629C389.035 240.648 389.086 240.659 389.14 240.659H400.944L398.921 228.466C398.911 228.407 398.889 228.354 398.858 228.308C398.747 228.381 398.636 228.456 398.526 228.531C398.404 228.615 398.283 228.7 398.163 228.786L399.999 239.856H389.309Z" fill="#2E7A48"/>
<path d="M391.323 236.044C391.239 236.177 391.156 236.31 391.074 236.445C391.004 236.559 390.935 236.674 390.867 236.789C390.928 236.825 390.998 236.846 391.074 236.846H395.913C396.134 236.846 396.314 236.666 396.314 236.445C396.314 236.37 396.293 236.301 396.258 236.241L395.885 230.957C395.878 230.862 395.839 230.777 395.779 230.713C395.681 230.803 395.583 230.894 395.486 230.985C395.359 231.104 395.234 231.225 395.11 231.347L395.442 236.044H391.323Z" fill="#2E7A48"/>
</g>
<path d="M395.441 236.921L392.442 234.413C392.575 234.234 392.71 234.056 392.848 233.881C392.985 233.705 393.124 233.532 393.266 233.36L393.275 233.367L396.296 235.894C396.296 235.894 396.296 235.894 396.296 235.894C396.303 235.9 396.311 235.907 396.318 235.913C396.326 235.919 396.333 235.925 396.341 235.931L421.289 256.799L435.991 272.88C436.24 273.152 436.222 273.575 435.95 273.824C435.679 274.074 435.257 274.055 435.008 273.783L420.367 257.768L420.093 257.54C420.093 257.54 420.093 257.54 420.093 257.54L395.486 236.958C395.479 236.952 395.471 236.946 395.464 236.939C395.457 236.933 395.449 236.927 395.441 236.921Z" fill="#2E7A48"/>
<g style="mix-blend-mode:multiply">
<path fill-rule="evenodd" clip-rule="evenodd" d="M392.443 234.413L395.441 236.921C395.449 236.927 395.457 236.933 395.464 236.939C395.471 236.946 395.479 236.952 395.486 236.958L420.093 257.54L420.093 257.54C420.348 257.437 420.593 257.351 420.828 257.284C420.865 257.064 420.913 256.814 420.974 256.535L396.341 235.931C396.333 235.925 396.326 235.919 396.318 235.913C396.311 235.907 396.303 235.9 396.296 235.894L393.275 233.367L393.266 233.36C393.124 233.532 392.985 233.705 392.848 233.881C392.71 234.056 392.575 234.234 392.443 234.413Z" fill="#2E7A48"/>
</g>
<path d="M435.807 239C429.739 239 431.312 248.532 432.858 253.297C429.206 250.074 423.166 243.415 418.531 248.882C415.834 253.087 426.396 257.222 432.015 258.764C416.339 259.942 416.634 266.123 418.741 269.067C423.629 274.617 430.751 267.174 433.7 262.759C431.172 268.716 427.59 278.949 435.175 280C442.339 279.79 441.004 268.997 439.389 263.81C443.532 267.244 452.452 270.538 455.191 265.703C457.887 258.974 447.606 258.834 442.128 259.605C446.974 258.203 454.769 253.297 452.662 248.882C450.028 243.36 441.355 250.074 437.703 253.928C439.6 248.952 441.875 239 435.807 239Z" fill="white"/>
<path fill-rule="evenodd" clip-rule="evenodd" d="M436.377 242.005C436.46 242.087 436.46 242.22 436.377 242.303C436.291 242.389 436.195 242.575 436.105 242.883C436.017 243.183 435.943 243.569 435.882 244.023C435.761 244.932 435.694 246.094 435.665 247.347C435.607 249.85 435.702 252.693 435.807 254.547C435.813 254.663 435.725 254.762 435.608 254.769C435.492 254.775 435.393 254.687 435.386 254.571C435.281 252.71 435.185 249.855 435.244 247.337C435.273 246.079 435.34 244.899 435.465 243.968C435.527 243.502 435.604 243.094 435.7 242.765C435.794 242.446 435.913 242.171 436.08 242.005C436.162 241.923 436.295 241.923 436.377 242.005ZM426.487 252.144C428.396 253.141 430.105 254.39 431.098 255.24C431.187 255.316 431.197 255.449 431.121 255.537C431.046 255.625 430.913 255.635 430.824 255.56C429.851 254.727 428.168 253.496 426.292 252.517C424.408 251.533 422.364 250.821 420.657 250.984C420.542 250.995 420.439 250.91 420.428 250.794C420.417 250.679 420.502 250.576 420.617 250.565C422.45 250.391 424.585 251.151 426.487 252.144ZM450.549 250.721C450.578 250.834 450.511 250.948 450.398 250.978C448.493 251.474 446.252 252.685 444.213 254.01C442.178 255.332 440.363 256.756 439.316 257.661C439.228 257.737 439.095 257.728 439.019 257.64C438.943 257.552 438.952 257.42 439.04 257.344C440.1 256.427 441.93 254.991 443.983 253.657C446.031 252.326 448.319 251.084 450.292 250.571C450.404 250.542 450.519 250.609 450.549 250.721ZM431.163 261.225C431.197 261.336 431.134 261.454 431.023 261.488C429.665 261.905 427.518 262.72 425.504 263.806C423.481 264.897 421.633 266.24 420.822 267.697C420.765 267.798 420.637 267.835 420.535 267.779C420.433 267.722 420.397 267.594 420.453 267.493C421.328 265.922 423.272 264.532 425.304 263.436C427.346 262.335 429.519 261.51 430.899 261.086C431.011 261.052 431.128 261.114 431.163 261.225ZM440.669 262.048C440.713 261.941 440.836 261.89 440.944 261.934C442.124 262.419 444.174 263.077 446.472 263.466C448.773 263.857 451.301 263.974 453.45 263.397C453.563 263.367 453.678 263.433 453.709 263.545C453.739 263.657 453.672 263.773 453.56 263.803C451.327 264.403 448.729 264.276 446.401 263.881C444.071 263.486 441.991 262.819 440.784 262.323C440.676 262.278 440.625 262.156 440.669 262.048ZM436.21 264.652C436.326 264.642 436.428 264.728 436.438 264.843C436.58 266.463 436.685 269.038 436.544 271.507C436.474 272.741 436.341 273.954 436.119 275.009C435.897 276.059 435.583 276.975 435.136 277.599C435.068 277.694 434.937 277.715 434.842 277.648C434.747 277.581 434.725 277.449 434.793 277.355C435.189 276.802 435.489 275.954 435.706 274.922C435.923 273.895 436.054 272.705 436.124 271.483C436.263 269.039 436.158 266.484 436.019 264.88C436.009 264.764 436.094 264.662 436.21 264.652Z" fill="#CDCDCD"/>
<ellipse cx="436.038" cy="258.554" rx="2.31759" ry="2.31282" fill="#CDCDCD"/>
<ellipse cx="436.038" cy="258.554" rx="1.05345" ry="1.05128" fill="#9B9B9B"/>
<g style="mix-blend-mode:multiply">
<path d="M435.807 239C429.739 239 431.312 248.532 432.858 253.297C429.206 250.074 423.166 243.415 418.531 248.882C415.834 253.087 426.396 257.222 432.015 258.764C416.339 259.942 416.634 266.123 418.741 269.067C423.629 274.617 430.751 267.174 433.7 262.759C431.172 268.716 427.59 278.949 435.175 280C442.339 279.79 441.004 268.997 439.389 263.81C443.532 267.244 452.452 270.538 455.191 265.703C457.887 258.974 447.606 258.834 442.128 259.605C446.974 258.203 454.769 253.297 452.662 248.882C450.028 243.36 441.355 250.074 437.703 253.928C439.6 248.952 441.875 239 435.807 239Z" fill="#F3AC46"/>
<path fill-rule="evenodd" clip-rule="evenodd" d="M436.377 242.005C436.46 242.087 436.46 242.22 436.377 242.303C436.291 242.389 436.195 242.575 436.105 242.883C436.017 243.183 435.943 243.569 435.882 244.023C435.761 244.932 435.694 246.094 435.665 247.347C435.607 249.85 435.702 252.693 435.807 254.547C435.813 254.663 435.725 254.762 435.608 254.769C435.492 254.775 435.393 254.687 435.386 254.571C435.281 252.71 435.185 249.855 435.244 247.337C435.273 246.079 435.34 244.899 435.465 243.968C435.527 243.502 435.604 243.094 435.7 242.765C435.794 242.446 435.913 242.171 436.08 242.005C436.162 241.923 436.295 241.923 436.377 242.005ZM426.487 252.144C428.396 253.141 430.105 254.39 431.098 255.24C431.187 255.316 431.197 255.449 431.121 255.537C431.046 255.625 430.913 255.635 430.824 255.56C429.851 254.727 428.168 253.496 426.292 252.517C424.408 251.533 422.364 250.821 420.657 250.984C420.542 250.995 420.439 250.91 420.428 250.794C420.417 250.679 420.502 250.576 420.617 250.565C422.45 250.391 424.585 251.151 426.487 252.144ZM450.549 250.721C450.578 250.834 450.511 250.948 450.398 250.978C448.493 251.474 446.252 252.685 444.213 254.01C442.178 255.332 440.363 256.756 439.316 257.661C439.228 257.737 439.095 257.728 439.019 257.64C438.943 257.552 438.952 257.42 439.04 257.344C440.1 256.427 441.93 254.991 443.983 253.657C446.031 252.326 448.319 251.084 450.292 250.571C450.404 250.542 450.519 250.609 450.549 250.721ZM431.163 261.225C431.197 261.336 431.134 261.454 431.023 261.488C429.665 261.905 427.518 262.72 425.504 263.806C423.481 264.897 421.633 266.24 420.822 267.697C420.765 267.798 420.637 267.835 420.535 267.779C420.433 267.722 420.397 267.594 420.453 267.493C421.328 265.922 423.272 264.532 425.304 263.436C427.346 262.335 429.519 261.51 430.899 261.086C431.011 261.052 431.128 261.114 431.163 261.225ZM440.669 262.048C440.713 261.941 440.836 261.89 440.944 261.934C442.124 262.419 444.174 263.077 446.472 263.466C448.773 263.857 451.301 263.974 453.45 263.397C453.563 263.367 453.678 263.433 453.709 263.545C453.739 263.657 453.672 263.773 453.56 263.803C451.327 264.403 448.729 264.276 446.401 263.881C444.071 263.486 441.991 262.819 440.784 262.323C440.676 262.278 440.625 262.156 440.669 262.048ZM436.21 264.652C436.326 264.642 436.428 264.728 436.438 264.843C436.58 266.463 436.685 269.038 436.544 271.507C436.474 272.741 436.341 273.954 436.119 275.009C435.897 276.059 435.583 276.975 435.136 277.599C435.068 277.694 434.937 277.715 434.842 277.648C434.747 277.581 434.725 277.449 434.793 277.355C435.189 276.802 435.489 275.954 435.706 274.922C435.923 273.895 436.054 272.705 436.124 271.483C436.263 269.039 436.158 266.484 436.019 264.88C436.009 264.764 436.094 264.662 436.21 264.652Z" fill="#F3AC46"/>
<ellipse cx="436.038" cy="258.554" rx="2.31759" ry="2.31282" fill="#F3AC46"/>
<ellipse cx="436.038" cy="258.554" rx="1.05345" ry="1.05128" fill="#F3AC46"/>
</g>
<g style="mix-blend-mode:soft-light">
<path d="M435.807 239C429.739 239 431.312 248.532 432.858 253.297C429.206 250.074 423.166 243.415 418.531 248.882C415.834 253.087 426.396 257.222 432.015 258.764C416.339 259.942 416.634 266.123 418.741 269.067C423.629 274.617 430.751 267.174 433.7 262.759C431.172 268.716 427.59 278.949 435.175 280C442.339 279.79 441.004 268.997 439.389 263.81C443.532 267.244 452.452 270.538 455.191 265.703C457.887 258.974 447.606 258.834 442.128 259.605C446.974 258.203 454.769 253.297 452.662 248.882C450.028 243.36 441.355 250.074 437.703 253.928C439.6 248.952 441.875 239 435.807 239Z" fill="#F3AC46"/>
<path fill-rule="evenodd" clip-rule="evenodd" d="M436.377 242.005C436.46 242.087 436.46 242.22 436.377 242.303C436.291 242.389 436.195 242.575 436.105 242.883C436.017 243.183 435.943 243.569 435.882 244.023C435.761 244.932 435.694 246.094 435.665 247.347C435.607 249.85 435.702 252.693 435.807 254.547C435.813 254.663 435.725 254.762 435.608 254.769C435.492 254.775 435.393 254.687 435.386 254.571C435.281 252.71 435.185 249.855 435.244 247.337C435.273 246.079 435.34 244.899 435.465 243.968C435.527 243.502 435.604 243.094 435.7 242.765C435.794 242.446 435.913 242.171 436.08 242.005C436.162 241.923 436.295 241.923 436.377 242.005ZM426.487 252.144C428.396 253.141 430.105 254.39 431.098 255.24C431.187 255.316 431.197 255.449 431.121 255.537C431.046 255.625 430.913 255.635 430.824 255.56C429.851 254.727 428.168 253.496 426.292 252.517C424.408 251.533 422.364 250.821 420.657 250.984C420.542 250.995 420.439 250.91 420.428 250.794C420.417 250.679 420.502 250.576 420.617 250.565C422.45 250.391 424.585 251.151 426.487 252.144ZM450.549 250.721C450.578 250.834 450.511 250.948 450.398 250.978C448.493 251.474 446.252 252.685 444.213 254.01C442.178 255.332 440.363 256.756 439.316 257.661C439.228 257.737 439.095 257.728 439.019 257.64C438.943 257.552 438.952 257.42 439.04 257.344C440.1 256.427 441.93 254.991 443.983 253.657C446.031 252.326 448.319 251.084 450.292 250.571C450.404 250.542 450.519 250.609 450.549 250.721ZM431.163 261.225C431.197 261.336 431.134 261.454 431.023 261.488C429.665 261.905 427.518 262.72 425.504 263.806C423.481 264.897 421.633 266.24 420.822 267.697C420.765 267.798 420.637 267.835 420.535 267.779C420.433 267.722 420.397 267.594 420.453 267.493C421.328 265.922 423.272 264.532 425.304 263.436C427.346 262.335 429.519 261.51 430.899 261.086C431.011 261.052 431.128 261.114 431.163 261.225ZM440.669 262.048C440.713 261.941 440.836 261.89 440.944 261.934C442.124 262.419 444.174 263.077 446.472 263.466C448.773 263.857 451.301 263.974 453.45 263.397C453.563 263.367 453.678 263.433 453.709 263.545C453.739 263.657 453.672 263.773 453.56 263.803C451.327 264.403 448.729 264.276 446.401 263.881C444.071 263.486 441.991 262.819 440.784 262.323C440.676 262.278 440.625 262.156 440.669 262.048ZM436.21 264.652C436.326 264.642 436.428 264.728 436.438 264.843C436.58 266.463 436.685 269.038 436.544 271.507C436.474 272.741 436.341 273.954 436.119 275.009C435.897 276.059 435.583 276.975 435.136 277.599C435.068 277.694 434.937 277.715 434.842 277.648C434.747 277.581 434.725 277.449 434.793 277.355C435.189 276.802 435.489 275.954 435.706 274.922C435.923 273.895 436.054 272.705 436.124 271.483C436.263 269.039 436.158 266.484 436.019 264.88C436.009 264.764 436.094 264.662 436.21 264.652Z" fill="#F3AC46"/>
<ellipse cx="436.038" cy="258.554" rx="2.31759" ry="2.31282" fill="#F3AC46"/>
<ellipse cx="436.038" cy="258.554" rx="1.05345" ry="1.05128" fill="#F3AC46"/>
</g>
</svg>
