<svg width="293" height="205" viewBox="0 0 293 205" fill="none" xmlns="http://www.w3.org/2000/svg">
<path d="M71.5837 169.902C75.1402 167.502 78.4503 165.665 81.1873 164.881C81.8932 160.634 84.4676 151.61 89.8375 140.783C92.5838 135.247 96.0613 129.238 100.394 123.157C106.889 114.04 104.95 104.659 97.8932 97.4804C94.6573 94.1885 90.3452 91.3596 85.2765 89.2314C81.6534 87.7102 77.6437 86.547 73.3642 85.8287C70.2324 85.3031 66.956 85.0157 63.5809 85.0006C60.1614 84.9853 56.6405 85.2496 53.0659 85.8287C50.1952 86.2939 47.2898 86.9621 44.3743 87.8517C41.5862 88.7025 38.9173 89.7282 36.3713 90.9114C33.2861 92.3452 30.3812 94.0103 27.6629 95.8756C25.0573 97.6636 22.6231 99.6355 20.3657 101.764C18.0707 103.928 15.9585 106.254 14.0349 108.714C12.4935 110.684 11.0731 112.741 9.77678 114.868C7.99186 117.796 6.44206 120.859 5.13509 124.018C3.53268 127.89 2.29527 131.906 1.43702 135.995C0.642754 139.779 0.173241 143.625 0.0397034 147.477C-0.100037 151.508 0.128181 155.546 0.737244 159.526C1.27582 163.045 2.11218 166.518 3.25525 169.902C3.59623 170.911 3.9645 171.912 4.3603 172.905C8.35397 182.915 12.77 189.112 17.1646 192.775C26.86 200.857 36.4512 196.607 41.1732 193.767C47.2209 190.128 60.5814 177.325 71.5837 169.902Z" fill="#2E7A48"/>
<g style="mix-blend-mode:multiply">
<path d="M74.4318 86.0182C74.0778 85.952 73.7219 85.8888 73.3642 85.8287C73.0494 85.7759 72.7331 85.7255 72.4155 85.6775C72.3923 85.8231 72.4022 85.9763 72.4507 86.1262C75.6555 96.0185 75.3985 109.226 73.7217 121.813C72.057 134.309 69.0124 146.06 66.7058 153.091C58.443 157.132 45.6883 162.633 33.4943 166.384C27.2391 168.308 21.1635 169.762 15.9339 170.33C10.662 170.903 6.42725 170.555 3.7185 169.058C3.47513 168.924 3.19897 168.906 2.95436 168.987C3.05215 169.293 3.15241 169.598 3.25515 169.902C3.40133 170.334 3.55252 170.766 3.70875 171.195C6.90492 172.586 11.2685 172.774 16.1409 172.245C21.5396 171.658 27.7443 170.167 34.0577 168.225C46.6882 164.339 59.8822 158.608 68.1809 154.511C68.6283 154.29 68.8281 153.767 68.6557 153.308C70.9787 146.139 73.9734 134.469 75.6254 122.068C77.2859 109.604 77.609 96.2699 74.4318 86.0182Z" fill="#2E7A48"/>
<path d="M86.3088 89.6792C85.9683 89.5267 85.6241 89.3774 85.2764 89.2314C84.9824 89.1079 84.6858 88.9869 84.3868 88.8682C84.3245 89.0212 84.3007 89.1923 84.3257 89.3677C88.7779 120.584 79.706 148.267 74.4383 158.627C74.3665 158.655 74.2969 158.692 74.2312 158.739C67.3407 163.611 55.7972 170.61 43.602 175.746C37.5055 178.313 31.2694 180.405 25.3862 181.538C19.4945 182.674 14.0185 182.835 9.40909 181.603C9.09258 181.518 8.77081 181.602 8.53883 181.8C8.89389 182.436 9.25089 183.049 9.60953 183.638C14.4427 184.778 19.9813 184.541 25.7486 183.43C31.8029 182.263 38.1713 180.121 44.3458 177.521C56.5468 172.383 68.0818 165.415 75.0892 160.488C75.4225 160.476 75.7404 160.29 75.9065 159.973C81.2534 149.756 90.6972 121.59 86.3088 89.6792Z" fill="#2E7A48"/>
<path d="M98.9807 98.6504C98.6331 98.2543 98.2704 97.8642 97.8931 97.4804C97.6698 97.2532 97.4414 97.0282 97.208 96.8056C97.0109 97.0069 96.9035 97.2929 96.9396 97.5948C97.841 105.139 96.7158 113.837 94.9143 121.687C93.1151 129.527 90.6593 136.446 88.9557 140.402C88.7518 140.875 88.9565 141.422 89.413 141.647C89.5525 141.361 89.694 141.073 89.8374 140.783C90.9054 138.63 92.0839 136.406 93.3803 134.134C94.5603 130.644 95.7753 126.523 96.786 122.119C98.5109 114.603 99.6569 106.192 98.9807 98.6504Z" fill="#2E7A48"/>
<path d="M58.3487 180.063C62.741 176.432 67.3379 172.766 71.5836 169.902C71.8517 169.721 72.1184 169.543 72.3835 169.369C72.3739 169.355 72.3639 169.34 72.3535 169.326C72.0365 168.9 71.4348 168.812 71.0096 169.13C64.3725 174.09 53.6996 181.18 43.27 186.323C38.0531 188.895 32.9329 190.962 28.4303 192.04C23.891 193.127 20.1584 193.166 17.5849 191.91C17.1845 191.714 16.715 191.823 16.4373 192.146C16.6797 192.364 16.9222 192.573 17.1645 192.775C17.9715 193.448 18.7779 194.035 19.5807 194.545C22.2956 195.036 25.4863 194.725 28.8766 193.913C33.574 192.788 38.8375 190.654 44.1176 188.051C48.9543 185.666 53.835 182.872 58.3487 180.063Z" fill="#2E7A48"/>
<path d="M0.926739 160.691C3.93273 162.053 8.07144 162.364 12.7013 162.045C17.7076 161.699 23.4479 160.602 29.2816 159.121C40.9519 156.159 53.1141 151.632 60.7565 148.363L61.1993 148.173L61.3128 147.704C62.9236 141.054 65.0128 129.952 66.0578 118.216C67.0905 106.618 67.1148 94.2877 64.5809 85.0131C64.2485 85.0063 63.9151 85.0021 63.5808 85.0006C63.2615 84.9992 62.9412 85.0002 62.6202 85.0037C62.6205 85.0888 62.6322 85.1753 62.6563 85.2613C65.1682 94.2166 65.1827 106.387 64.1448 118.044C63.1333 129.404 61.1335 140.166 59.5591 146.78C51.9599 150.005 40.1368 154.38 28.8103 157.254C23.0342 158.72 17.4167 159.789 12.5693 160.123C7.68459 160.461 3.73823 160.04 1.18928 158.676C1.00117 158.575 0.794662 158.544 0.598719 158.573C0.642442 158.891 0.688582 159.208 0.73714 159.526C0.796695 159.915 0.859895 160.303 0.926739 160.691Z" fill="#2E7A48"/>
<path d="M0.0799456 146.515C0.0641747 146.836 0.0507239 147.156 0.0396055 147.477C0.026747 147.848 0.0170085 148.219 0.0103899 148.59C0.848202 149.035 1.92626 149.305 3.11906 149.467C4.61553 149.671 6.42274 149.72 8.44142 149.653C12.4813 149.52 17.4764 148.917 22.7437 148.069C33.2843 146.373 45.0226 143.68 52.6167 141.716L53.1795 141.57L53.3119 141.003C55.3925 132.085 58.4301 108.612 54.0156 85.6821C53.6994 85.7285 53.3828 85.7774 53.0658 85.8287C52.7506 85.8798 52.4349 85.9333 52.1189 85.9893C52.1201 85.9967 52.1215 86.0041 52.1229 86.0115C56.3919 108.146 53.6022 130.858 51.5709 139.997C44.0051 141.937 32.6451 144.526 22.4394 146.168C17.2046 147.01 12.3004 147.599 8.37818 147.729C6.41581 147.794 4.72625 147.742 3.37704 147.559C1.99875 147.372 1.09789 147.061 0.607609 146.701C0.447903 146.583 0.264013 146.523 0.0799456 146.515Z" fill="#2E7A48"/>
<path d="M1.64142 135.054C1.57102 135.367 1.50285 135.681 1.43692 135.995C1.36517 136.337 1.29606 136.679 1.22962 137.022C1.44954 137.146 1.68683 137.243 1.92202 137.32C2.34011 137.458 2.8277 137.559 3.36116 137.635C4.42823 137.787 5.77242 137.847 7.30408 137.84C10.3728 137.827 14.3095 137.542 18.529 137.113C26.9743 136.254 36.6452 134.807 42.9743 133.735L43.7363 133.606L43.7736 132.832C44.0353 127.394 44.0253 118.771 43.1434 110.54C42.7025 106.424 42.0412 102.384 41.0778 98.8789C40.1522 95.5111 38.9246 92.5492 37.2772 90.4994C36.9735 90.6345 36.6715 90.7719 36.3712 90.9114C36.0802 91.0467 35.7908 91.184 35.5029 91.3233C35.5379 91.3973 35.583 91.468 35.6382 91.5335C37.1045 93.2701 38.2944 96.0002 39.2262 99.3905C40.1524 102.76 40.7992 106.69 41.2337 110.745C42.0621 118.476 42.1104 126.58 41.8896 131.964C35.5897 133.017 26.392 134.378 18.3352 135.197C14.1373 135.624 10.2722 135.901 7.2956 135.915C5.80459 135.921 4.56521 135.861 3.63042 135.728C3.16296 135.662 2.79504 135.581 2.52088 135.491C2.23409 135.396 2.11679 135.314 2.08711 135.286C1.95695 135.166 1.80263 135.089 1.64142 135.054Z" fill="#2E7A48"/>
<path d="M5.54225 123.055C5.40398 123.375 5.26822 123.696 5.13499 124.018C5.01227 124.314 4.89169 124.612 4.77326 124.91C4.88489 124.955 5.00699 124.98 5.13494 124.98H33.4651L28.6101 95.7175C28.5868 95.5771 28.5343 95.4489 28.4598 95.338C28.1924 95.5153 27.9267 95.6945 27.6628 95.8756C27.3699 96.0766 27.0791 96.28 26.7904 96.4856L31.1985 123.055H5.54225Z" fill="#2E7A48"/>
<path d="M10.3751 113.905C10.1728 114.224 9.9733 114.545 9.77668 114.868C9.60971 115.142 9.44478 115.417 9.28193 115.693C9.42642 115.78 9.59568 115.83 9.77663 115.83H21.3923C21.9227 115.83 22.3526 115.399 22.3526 114.868C22.3526 114.689 22.304 114.522 22.2194 114.378L21.3235 101.696C21.3074 101.469 21.2138 101.265 21.0703 101.11C20.8336 101.326 20.5986 101.544 20.3656 101.764C20.0619 102.051 19.7614 102.34 19.4641 102.632L20.2605 113.905H10.3751Z" fill="#2E7A48"/>
</g>
<path d="M20.2595 116.01L13.062 109.99C13.3807 109.561 13.7049 109.135 14.0347 108.714C14.3637 108.293 14.6982 107.876 15.0382 107.464L15.06 107.481L22.3101 113.546C22.3101 113.546 22.31 113.546 22.3101 113.546C22.3281 113.561 22.3459 113.576 22.363 113.592C22.3815 113.606 22.3997 113.62 22.4177 113.635L82.2948 163.717L117.579 202.311C118.177 202.964 118.133 203.979 117.481 204.578C116.829 205.177 115.817 205.133 115.22 204.48L80.0797 166.044L79.4239 165.496C79.4238 165.496 79.4239 165.496 79.4239 165.496L20.3669 116.1C20.3489 116.085 20.3313 116.07 20.3142 116.054C20.2957 116.04 20.2775 116.025 20.2595 116.01Z" fill="#2E7A48"/>
<g style="mix-blend-mode:multiply">
<path fill-rule="evenodd" clip-rule="evenodd" d="M13.0622 109.99L20.2595 116.01C20.2775 116.025 20.2957 116.04 20.3142 116.054C20.3313 116.07 20.3489 116.085 20.3669 116.1L79.4239 165.496L79.424 165.496C80.0342 165.249 80.6229 165.042 81.1873 164.881C81.2749 164.354 81.3913 163.753 81.5382 163.084L22.4177 113.635C22.3997 113.62 22.3815 113.606 22.363 113.592C22.3459 113.576 22.3281 113.561 22.3101 113.546L15.0599 107.481L15.0384 107.464C14.6984 107.876 14.3639 108.293 14.0349 108.714C13.7051 109.135 13.3809 109.561 13.0622 109.99Z" fill="#2E7A48"/>
</g>
<path d="M91.3053 120.388C88.3665 166.616 126.815 164.239 146.407 157.272C165.999 167.108 179.477 160.932 186.066 153.584C199.06 139.089 193.761 126.208 190.489 114.24C201.509 99.4864 198.891 84.6431 196.611 76.1261C192.06 59.1269 173.61 57.0021 161.101 58.9133C150.765 50.9569 150.081 47.3657 135.387 47.3657C119.468 47.3657 115.728 55.6939 113.346 62.6018C93.7443 65.5969 85.6278 71.2082 82.025 83.503C75.5401 105.634 84.8482 111.126 91.3053 120.388Z" fill="#CDCDCD"/>
<path d="M104.695 117.862C102.09 159.378 136.172 157.243 153.538 150.986C170.904 159.819 182.851 154.273 188.691 147.674C200.209 134.657 195.512 123.089 192.612 112.341C202.38 99.0911 200.06 85.761 198.039 78.1122C194.005 62.846 175.404 55.4852 164.317 57.2016C155.746 52.2839 145.95 52.2837 143.769 52.2837H143.769C129.659 52.2837 126.343 59.7629 124.232 65.9666C106.857 68.6563 99.6627 73.6956 96.4692 84.7372C90.7209 104.612 98.9717 109.544 104.695 117.862Z" fill="white"/>
<path fill-rule="evenodd" clip-rule="evenodd" d="M103.349 143.606L181.897 62.5241L183.653 64.2387L105.104 145.32L103.349 143.606Z" fill="#9B9B9B"/>
<path fill-rule="evenodd" clip-rule="evenodd" d="M94.4881 131.819L191.26 73.9131L192.514 76.0254L95.7418 133.932L94.4881 131.819Z" fill="#9B9B9B"/>
<path fill-rule="evenodd" clip-rule="evenodd" d="M88.9667 118.131L197.367 87.3468L198.034 89.713L89.6332 120.498L88.9667 118.131Z" fill="#9B9B9B"/>
<path fill-rule="evenodd" clip-rule="evenodd" d="M87.1625 103.475L196.622 101.954L196.656 104.413L87.1964 105.934L87.1625 103.475Z" fill="#9B9B9B"/>
<path fill-rule="evenodd" clip-rule="evenodd" d="M89.1974 88.8494L191.45 114.843L190.849 117.226L88.5964 91.2332L89.1974 88.8494Z" fill="#9B9B9B"/>
<path fill-rule="evenodd" clip-rule="evenodd" d="M94.9329 75.251L193.263 130.447L192.068 132.593L93.7379 77.3973L94.9329 75.251Z" fill="#9B9B9B"/>
<path fill-rule="evenodd" clip-rule="evenodd" d="M103.978 63.6062L184.73 142.475L183.023 144.237L102.27 65.3688L103.978 63.6062Z" fill="#9B9B9B"/>
<path fill-rule="evenodd" clip-rule="evenodd" d="M115.716 54.7089L173.387 151.876L171.284 153.134L113.613 55.9677L115.716 54.7089Z" fill="#9B9B9B"/>
<path fill-rule="evenodd" clip-rule="evenodd" d="M129.349 49.1656L160.008 158.009L157.652 158.678L126.992 49.8348L129.349 49.1656Z" fill="#9B9B9B"/>
<path fill-rule="evenodd" clip-rule="evenodd" d="M143.947 47.354L145.459 157.123L143.01 157.157L141.498 47.3881L143.947 47.354Z" fill="#9B9B9B"/>
<path fill-rule="evenodd" clip-rule="evenodd" d="M158.513 49.3975L130.864 159.051L128.49 158.447L156.139 48.794L158.513 49.3975Z" fill="#9B9B9B"/>
<path fill-rule="evenodd" clip-rule="evenodd" d="M172.057 55.1567L117.085 153.888L114.948 152.688L169.919 53.9568L172.057 55.1567Z" fill="#9B9B9B"/>
<path fill-rule="evenodd" clip-rule="evenodd" d="M183.653 64.2387L105.104 145.32L103.349 143.606L181.897 62.5241L183.653 64.2387Z" fill="#9B9B9B"/>
<path fill-rule="evenodd" clip-rule="evenodd" d="M192.514 76.0254L95.7418 133.932L94.4881 131.819L191.26 73.9131L192.514 76.0254Z" fill="#9B9B9B"/>
<path fill-rule="evenodd" clip-rule="evenodd" d="M198.034 89.713L89.6332 120.498L88.9667 118.131L197.367 87.3468L198.034 89.713Z" fill="#9B9B9B"/>
<path fill-rule="evenodd" clip-rule="evenodd" d="M193.609 104.456L87.1977 105.934L87.1638 103.475L193.575 101.997L193.609 104.456Z" fill="#9B9B9B"/>
<path fill-rule="evenodd" clip-rule="evenodd" d="M188.887 116.832L79.5693 89.0428L80.2199 86.4625L189.537 114.252L188.887 116.832Z" fill="#9B9B9B"/>
<path fill-rule="evenodd" clip-rule="evenodd" d="M192.069 132.593L93.739 77.3976L94.9341 75.2512L193.264 130.447L192.069 132.593Z" fill="#9B9B9B"/>
<path fill-rule="evenodd" clip-rule="evenodd" d="M183.023 144.237L102.27 65.3688L103.978 63.6062L184.73 142.475L183.023 144.237Z" fill="#9B9B9B"/>
<path fill-rule="evenodd" clip-rule="evenodd" d="M171.285 153.135L113.614 55.9683L115.718 54.7095L173.388 151.876L171.285 153.135Z" fill="#9B9B9B"/>
<path fill-rule="evenodd" clip-rule="evenodd" d="M157.652 158.678L126.992 49.8348L129.349 49.1656L160.008 158.009L157.652 158.678Z" fill="#9B9B9B"/>
<path fill-rule="evenodd" clip-rule="evenodd" d="M142.987 155.572L141.496 47.388L143.945 47.354L145.436 155.538L142.987 155.572Z" fill="#9B9B9B"/>
<path fill-rule="evenodd" clip-rule="evenodd" d="M128.489 158.447L156.138 48.7939L158.512 49.3974L130.863 159.05L128.489 158.447Z" fill="#9B9B9B"/>
<path fill-rule="evenodd" clip-rule="evenodd" d="M114.947 152.688L169.918 53.9565L172.056 55.1564L117.084 153.888L114.947 152.688Z" fill="#9B9B9B"/>
<path d="M169.215 105.152C169.215 120.769 156.606 133.43 141.052 133.43C125.497 133.43 111.664 120.769 111.664 105.152C111.664 89.534 125.497 76.8734 141.052 76.8734C156.606 76.8734 169.215 89.534 169.215 105.152Z" fill="#9B9B9B"/>
<g style="mix-blend-mode:multiply">
<path d="M91.3053 120.388C88.3665 166.616 126.815 164.239 146.407 157.272C165.999 167.108 179.477 160.932 186.066 153.584C199.06 139.089 193.761 126.208 190.489 114.24C201.509 99.4864 198.891 84.6431 196.611 76.1261C192.06 59.1269 173.61 57.0021 161.101 58.9133C150.765 50.9569 150.081 47.3657 135.387 47.3657C119.468 47.3657 115.728 55.6939 113.346 62.6018C93.7443 65.5969 85.6278 71.2082 82.025 83.503C75.5401 105.634 84.8482 111.126 91.3053 120.388Z" fill="#F4B855"/>
<path d="M104.695 117.862C102.09 159.378 136.172 157.243 153.538 150.986C170.904 159.819 182.851 154.273 188.691 147.674C200.209 134.657 195.512 123.089 192.612 112.341C202.38 99.0911 200.06 85.761 198.039 78.1122C194.005 62.846 175.404 55.4852 164.317 57.2016C155.746 52.2839 145.95 52.2837 143.769 52.2837H143.769C129.659 52.2837 126.343 59.7629 124.232 65.9666C106.857 68.6563 99.6627 73.6956 96.4692 84.7372C90.7209 104.612 98.9717 109.544 104.695 117.862Z" fill="#F4B855"/>
<path fill-rule="evenodd" clip-rule="evenodd" d="M103.349 143.606L181.897 62.5241L183.653 64.2387L105.104 145.32L103.349 143.606Z" fill="#F4B855"/>
<path fill-rule="evenodd" clip-rule="evenodd" d="M94.4881 131.819L191.26 73.9131L192.514 76.0254L95.7418 133.932L94.4881 131.819Z" fill="#F4B855"/>
<path fill-rule="evenodd" clip-rule="evenodd" d="M88.9667 118.131L197.367 87.3468L198.034 89.713L89.6332 120.498L88.9667 118.131Z" fill="#F4B855"/>
<path fill-rule="evenodd" clip-rule="evenodd" d="M87.1625 103.475L196.622 101.954L196.656 104.413L87.1964 105.934L87.1625 103.475Z" fill="#F4B855"/>
<path fill-rule="evenodd" clip-rule="evenodd" d="M89.1974 88.8494L191.45 114.843L190.849 117.226L88.5964 91.2332L89.1974 88.8494Z" fill="#F4B855"/>
<path fill-rule="evenodd" clip-rule="evenodd" d="M94.9329 75.251L193.263 130.447L192.068 132.593L93.7379 77.3973L94.9329 75.251Z" fill="#F4B855"/>
<path fill-rule="evenodd" clip-rule="evenodd" d="M103.978 63.6062L184.73 142.475L183.023 144.237L102.27 65.3688L103.978 63.6062Z" fill="#F4B855"/>
<path fill-rule="evenodd" clip-rule="evenodd" d="M115.716 54.7089L173.387 151.876L171.284 153.134L113.613 55.9677L115.716 54.7089Z" fill="#F4B855"/>
<path fill-rule="evenodd" clip-rule="evenodd" d="M129.349 49.1656L160.008 158.009L157.652 158.678L126.992 49.8348L129.349 49.1656Z" fill="#F4B855"/>
<path fill-rule="evenodd" clip-rule="evenodd" d="M143.947 47.354L145.459 157.123L143.01 157.157L141.498 47.3881L143.947 47.354Z" fill="#F4B855"/>
<path fill-rule="evenodd" clip-rule="evenodd" d="M158.513 49.3975L130.864 159.051L128.49 158.447L156.139 48.794L158.513 49.3975Z" fill="#F4B855"/>
<path fill-rule="evenodd" clip-rule="evenodd" d="M172.057 55.1567L117.085 153.888L114.948 152.688L169.919 53.9568L172.057 55.1567Z" fill="#F4B855"/>
<path fill-rule="evenodd" clip-rule="evenodd" d="M183.653 64.2387L105.104 145.32L103.349 143.606L181.897 62.5241L183.653 64.2387Z" fill="#F4B855"/>
<path fill-rule="evenodd" clip-rule="evenodd" d="M192.514 76.0254L95.7418 133.932L94.4881 131.819L191.26 73.9131L192.514 76.0254Z" fill="#F4B855"/>
<path fill-rule="evenodd" clip-rule="evenodd" d="M198.034 89.713L89.6332 120.498L88.9667 118.131L197.367 87.3468L198.034 89.713Z" fill="#F4B855"/>
<path fill-rule="evenodd" clip-rule="evenodd" d="M193.609 104.456L87.1977 105.934L87.1638 103.475L193.575 101.997L193.609 104.456Z" fill="#F4B855"/>
<path fill-rule="evenodd" clip-rule="evenodd" d="M188.887 116.832L79.5693 89.0428L80.2199 86.4625L189.537 114.252L188.887 116.832Z" fill="#F4B855"/>
<path fill-rule="evenodd" clip-rule="evenodd" d="M192.069 132.593L93.739 77.3976L94.9341 75.2512L193.264 130.447L192.069 132.593Z" fill="#F4B855"/>
<path fill-rule="evenodd" clip-rule="evenodd" d="M183.023 144.237L102.27 65.3688L103.978 63.6062L184.73 142.475L183.023 144.237Z" fill="#F4B855"/>
<path fill-rule="evenodd" clip-rule="evenodd" d="M171.285 153.135L113.614 55.9683L115.718 54.7095L173.388 151.876L171.285 153.135Z" fill="#F4B855"/>
<path fill-rule="evenodd" clip-rule="evenodd" d="M157.652 158.678L126.992 49.8348L129.349 49.1656L160.008 158.009L157.652 158.678Z" fill="#F4B855"/>
<path fill-rule="evenodd" clip-rule="evenodd" d="M142.987 155.572L141.496 47.388L143.945 47.354L145.436 155.538L142.987 155.572Z" fill="#F4B855"/>
<path fill-rule="evenodd" clip-rule="evenodd" d="M128.489 158.447L156.138 48.7939L158.512 49.3974L130.863 159.05L128.489 158.447Z" fill="#F4B855"/>
<path fill-rule="evenodd" clip-rule="evenodd" d="M114.947 152.688L169.918 53.9565L172.056 55.1564L117.084 153.888L114.947 152.688Z" fill="#F4B855"/>
<path d="M169.215 105.152C169.215 120.769 156.606 133.43 141.052 133.43C125.497 133.43 111.664 120.769 111.664 105.152C111.664 89.534 125.497 76.8734 141.052 76.8734C156.606 76.8734 169.215 89.534 169.215 105.152Z" fill="#F4B855"/>
</g>
<g style="mix-blend-mode:soft-light">
<path d="M91.3053 120.388C88.3665 166.616 126.815 164.239 146.407 157.272C165.999 167.108 179.477 160.932 186.066 153.584C199.06 139.089 193.761 126.208 190.489 114.24C201.509 99.4864 198.891 84.6431 196.611 76.1261C192.06 59.1269 173.61 57.0021 161.101 58.9133C150.765 50.9569 150.081 47.3657 135.387 47.3657C119.468 47.3657 115.728 55.6939 113.346 62.6018C93.7443 65.5969 85.6278 71.2082 82.025 83.503C75.5401 105.634 84.8482 111.126 91.3053 120.388Z" fill="#F4B855"/>
<path d="M104.695 117.862C102.09 159.378 136.172 157.243 153.538 150.986C170.904 159.819 182.851 154.273 188.691 147.674C200.209 134.657 195.512 123.089 192.612 112.341C202.38 99.0911 200.06 85.761 198.039 78.1122C194.005 62.846 175.404 55.4852 164.317 57.2016C155.746 52.2839 145.95 52.2837 143.769 52.2837H143.769C129.659 52.2837 126.343 59.7629 124.232 65.9666C106.857 68.6563 99.6627 73.6956 96.4692 84.7372C90.7209 104.612 98.9717 109.544 104.695 117.862Z" fill="#F4B855"/>
<path fill-rule="evenodd" clip-rule="evenodd" d="M103.349 143.606L181.897 62.5241L183.653 64.2387L105.104 145.32L103.349 143.606Z" fill="#F4B855"/>
<path fill-rule="evenodd" clip-rule="evenodd" d="M94.4881 131.819L191.26 73.9131L192.514 76.0254L95.7418 133.932L94.4881 131.819Z" fill="#F4B855"/>
<path fill-rule="evenodd" clip-rule="evenodd" d="M88.9667 118.131L197.367 87.3468L198.034 89.713L89.6332 120.498L88.9667 118.131Z" fill="#F4B855"/>
<path fill-rule="evenodd" clip-rule="evenodd" d="M87.1625 103.475L196.622 101.954L196.656 104.413L87.1964 105.934L87.1625 103.475Z" fill="#F4B855"/>
<path fill-rule="evenodd" clip-rule="evenodd" d="M89.1974 88.8494L191.45 114.843L190.849 117.226L88.5964 91.2332L89.1974 88.8494Z" fill="#F4B855"/>
<path fill-rule="evenodd" clip-rule="evenodd" d="M94.9329 75.251L193.263 130.447L192.068 132.593L93.7379 77.3973L94.9329 75.251Z" fill="#F4B855"/>
<path fill-rule="evenodd" clip-rule="evenodd" d="M103.978 63.6062L184.73 142.475L183.023 144.237L102.27 65.3688L103.978 63.6062Z" fill="#F4B855"/>
<path fill-rule="evenodd" clip-rule="evenodd" d="M115.716 54.7089L173.387 151.876L171.284 153.134L113.613 55.9677L115.716 54.7089Z" fill="#F4B855"/>
<path fill-rule="evenodd" clip-rule="evenodd" d="M129.349 49.1656L160.008 158.009L157.652 158.678L126.992 49.8348L129.349 49.1656Z" fill="#F4B855"/>
<path fill-rule="evenodd" clip-rule="evenodd" d="M143.947 47.354L145.459 157.123L143.01 157.157L141.498 47.3881L143.947 47.354Z" fill="#F4B855"/>
<path fill-rule="evenodd" clip-rule="evenodd" d="M158.513 49.3975L130.864 159.051L128.49 158.447L156.139 48.794L158.513 49.3975Z" fill="#F4B855"/>
<path fill-rule="evenodd" clip-rule="evenodd" d="M172.057 55.1567L117.085 153.888L114.948 152.688L169.919 53.9568L172.057 55.1567Z" fill="#F4B855"/>
<path fill-rule="evenodd" clip-rule="evenodd" d="M183.653 64.2387L105.104 145.32L103.349 143.606L181.897 62.5241L183.653 64.2387Z" fill="#F4B855"/>
<path fill-rule="evenodd" clip-rule="evenodd" d="M192.514 76.0254L95.7418 133.932L94.4881 131.819L191.26 73.9131L192.514 76.0254Z" fill="#F4B855"/>
<path fill-rule="evenodd" clip-rule="evenodd" d="M198.034 89.713L89.6332 120.498L88.9667 118.131L197.367 87.3468L198.034 89.713Z" fill="#F4B855"/>
<path fill-rule="evenodd" clip-rule="evenodd" d="M193.609 104.456L87.1977 105.934L87.1638 103.475L193.575 101.997L193.609 104.456Z" fill="#F4B855"/>
<path fill-rule="evenodd" clip-rule="evenodd" d="M188.887 116.832L79.5693 89.0428L80.2199 86.4625L189.537 114.252L188.887 116.832Z" fill="#F4B855"/>
<path fill-rule="evenodd" clip-rule="evenodd" d="M192.069 132.593L93.739 77.3976L94.9341 75.2512L193.264 130.447L192.069 132.593Z" fill="#F4B855"/>
<path fill-rule="evenodd" clip-rule="evenodd" d="M183.023 144.237L102.27 65.3688L103.978 63.6062L184.73 142.475L183.023 144.237Z" fill="#F4B855"/>
<path fill-rule="evenodd" clip-rule="evenodd" d="M171.285 153.135L113.614 55.9683L115.718 54.7095L173.388 151.876L171.285 153.135Z" fill="#F4B855"/>
<path fill-rule="evenodd" clip-rule="evenodd" d="M157.652 158.678L126.992 49.8348L129.349 49.1656L160.008 158.009L157.652 158.678Z" fill="#F4B855"/>
<path fill-rule="evenodd" clip-rule="evenodd" d="M142.987 155.572L141.496 47.388L143.945 47.354L145.436 155.538L142.987 155.572Z" fill="#F4B855"/>
<path fill-rule="evenodd" clip-rule="evenodd" d="M128.489 158.447L156.138 48.7939L158.512 49.3974L130.863 159.05L128.489 158.447Z" fill="#F4B855"/>
<path fill-rule="evenodd" clip-rule="evenodd" d="M114.947 152.688L169.918 53.9565L172.056 55.1564L117.084 153.888L114.947 152.688Z" fill="#F4B855"/>
<path d="M169.215 105.152C169.215 120.769 156.606 133.43 141.052 133.43C125.497 133.43 111.664 120.769 111.664 105.152C111.664 89.534 125.497 76.8734 141.052 76.8734C156.606 76.8734 169.215 89.534 169.215 105.152Z" fill="#F4B855"/>
</g>
<g style="mix-blend-mode:multiply">
<path d="M219.416 84.9018C215.86 82.5022 212.55 80.6647 209.813 79.8807C209.107 75.6336 206.532 66.6097 201.163 55.7834C198.416 50.2466 194.939 44.2384 190.606 38.1566C184.111 29.0401 186.05 19.6593 193.107 12.4804C196.343 9.18847 200.655 6.35955 205.724 4.2314C209.347 2.71019 213.356 1.54703 217.636 0.828748C220.768 0.30309 224.044 0.0157027 227.419 0.000625387C230.839 -0.0146502 234.359 0.249591 237.934 0.828748C240.805 1.29386 243.71 1.96206 246.626 2.8517C249.414 3.70251 252.083 4.72823 254.629 5.91142C257.714 7.34523 260.619 9.01029 263.337 10.8756C265.943 12.6636 268.377 14.6355 270.634 16.7642C272.929 18.9283 275.041 21.2544 276.965 23.7137C278.507 25.6844 279.927 27.7407 281.223 29.8677C283.008 32.7963 284.558 35.8592 285.865 39.0176C287.467 42.89 288.705 46.9061 289.563 50.9948C290.357 54.7788 290.827 58.625 290.96 62.4771C291.1 66.5083 290.872 70.546 290.263 74.5256C289.724 78.0446 288.888 81.5182 287.745 84.9018C287.404 85.9111 287.035 86.9124 286.64 87.9045C282.646 97.9149 278.23 104.112 273.835 107.775C264.14 115.857 254.549 111.607 249.827 108.767C243.779 105.128 230.419 92.3251 219.416 84.9018Z" fill="#2E7A48"/>
</g>
<g style="mix-blend-mode:multiply">
<path d="M216.568 1.01818C216.922 0.951965 217.278 0.888799 217.636 0.828748C217.951 0.775915 218.267 0.725488 218.584 0.677504C218.608 0.823118 218.598 0.976281 218.549 1.12616C215.344 11.0185 215.601 24.2258 217.278 36.8131C218.943 49.3086 221.988 61.0601 224.294 68.0913C232.557 72.1318 245.312 77.6326 257.506 81.3838C263.761 83.3081 269.836 84.7619 275.066 85.3303C280.338 85.9033 284.573 85.5546 287.281 84.0584C287.525 83.924 287.801 83.9065 288.046 83.9873C287.948 84.2928 287.848 84.5977 287.745 84.9018C287.599 85.3345 287.447 85.7657 287.291 86.1953C284.095 87.5857 279.731 87.7744 274.859 87.2448C269.46 86.658 263.256 85.167 256.942 83.2248C244.312 79.3393 231.118 73.6077 222.819 69.5111C222.372 69.2902 222.172 68.7668 222.344 68.3085C220.021 61.139 217.027 49.469 215.375 37.0681C213.714 24.6036 213.391 11.2699 216.568 1.01818Z" fill="#3F7B70"/>
<path d="M204.691 4.67923C205.032 4.5267 205.376 4.3774 205.724 4.2314C206.018 4.10795 206.314 3.98686 206.613 3.86817C206.675 4.02116 206.699 4.19226 206.674 4.36765C202.222 35.5835 211.294 63.2672 216.562 73.6273C216.633 73.6552 216.703 73.6922 216.769 73.7387C223.659 78.6112 235.203 85.6099 247.398 90.7457C253.494 93.3131 259.731 95.405 265.614 96.5384C271.505 97.6735 276.981 97.8352 281.591 96.6028C281.907 96.5181 282.229 96.6023 282.461 96.8001C282.106 97.4364 281.749 98.0489 281.39 98.6383C276.557 99.7778 271.019 99.5407 265.251 98.4296C259.197 97.2632 252.829 95.1214 246.654 92.5211C234.453 87.3829 222.918 80.4155 215.911 75.488C215.577 75.4762 215.26 75.2903 215.093 74.9729C209.747 64.7565 200.303 36.5895 204.691 4.67923Z" fill="#3F7B70"/>
<path d="M192.019 13.6504C192.367 13.2543 192.729 12.8642 193.107 12.4804C193.33 12.2532 193.559 12.0282 193.792 11.8056C193.989 12.0069 194.096 12.2929 194.06 12.5948C193.159 20.1391 194.284 28.8369 196.086 36.6874C197.885 44.5274 200.341 51.4463 202.044 55.4017C202.248 55.875 202.043 56.4222 201.587 56.6472C201.447 56.3606 201.306 56.0727 201.163 55.7834C200.095 53.6303 198.916 51.406 197.62 49.1337C196.44 45.6438 195.225 41.5235 194.214 37.1192C192.489 29.6031 191.343 21.192 192.019 13.6504Z" fill="#3F7B70"/>
<path d="M232.651 95.0632C228.259 91.4322 223.662 87.7664 219.416 84.9018C219.148 84.7209 218.882 84.5432 218.616 84.3689C218.626 84.3545 218.636 84.3403 218.646 84.3263C218.963 83.8999 219.565 83.8119 219.99 84.1298C226.627 89.0903 237.3 96.1802 247.73 101.323C252.947 103.895 258.067 105.962 262.57 107.04C267.109 108.127 270.842 108.166 273.415 106.91C273.815 106.714 274.285 106.823 274.563 107.146C274.32 107.364 274.078 107.573 273.835 107.775C273.028 108.448 272.222 109.035 271.419 109.545C268.704 110.036 265.514 109.725 262.123 108.913C257.426 107.788 252.162 105.654 246.882 103.051C242.046 100.666 237.165 97.8721 232.651 95.0632Z" fill="#3F7B70"/>
<path d="M290.073 75.6912C287.067 77.0531 282.929 77.3644 278.299 77.0446C273.292 76.6989 267.552 75.6017 261.718 74.1211C250.048 71.1591 237.886 66.6318 230.243 63.3627L229.801 63.1732L229.687 62.7042C228.076 56.0538 225.987 44.9523 224.942 33.2156C223.909 21.618 223.885 9.2877 226.419 0.0130891C226.751 0.00628454 227.085 0.00211893 227.419 0.000625387C227.738 -0.000801159 228.059 0.000210016 228.38 0.00368774C228.379 0.0888141 228.368 0.175311 228.344 0.26125C225.832 9.21661 225.817 21.3873 226.855 33.0443C227.867 44.4037 229.866 55.1665 231.441 61.7804C239.04 65.0055 250.863 69.3795 262.19 72.2542C267.966 73.7202 273.583 74.7887 278.431 75.1235C283.315 75.4609 287.262 75.0402 289.811 73.6761C289.999 73.5754 290.205 73.5439 290.401 73.5727C290.357 73.8907 290.311 74.2083 290.263 74.5256C290.203 74.9147 290.14 75.3033 290.073 75.6912Z" fill="#3F7B70"/>
<path d="M290.92 61.5149C290.936 61.8356 290.949 62.1563 290.96 62.4771C290.973 62.8479 290.983 63.2189 290.99 63.5898C290.152 64.0353 289.074 64.3051 287.881 64.4672C286.384 64.6706 284.577 64.7201 282.559 64.6534C278.519 64.52 273.523 63.917 268.256 63.0695C257.716 61.3734 245.977 58.68 238.383 56.7157L237.82 56.5702L237.688 56.0027C235.607 47.0846 232.57 23.6116 236.984 0.682063C237.301 0.728498 237.617 0.777384 237.934 0.828748C238.249 0.879822 238.565 0.933346 238.881 0.989342C238.88 0.996728 238.878 1.00412 238.877 1.01151C234.608 23.1457 237.398 45.8577 239.429 54.9969C246.995 56.9371 258.355 59.5259 268.561 61.1681C273.795 62.0104 278.7 62.5992 282.622 62.7287C284.584 62.7935 286.274 62.7423 287.623 62.559C289.001 62.3716 289.902 62.0613 290.392 61.7007C290.552 61.5832 290.736 61.5225 290.92 61.5149Z" fill="#3F7B70"/>
<path d="M289.359 50.0539C289.429 50.3671 289.497 50.6807 289.563 50.9948C289.635 51.3367 289.704 51.679 289.77 52.0219C289.55 52.1465 289.313 52.2429 289.078 52.3203C288.66 52.4578 288.172 52.5595 287.639 52.6352C286.572 52.7867 285.228 52.847 283.696 52.8403C280.627 52.8267 276.69 52.5423 272.471 52.1132C264.026 51.2545 254.355 49.8067 248.026 48.7347L247.264 48.6056L247.226 47.8317C246.965 42.3944 246.975 33.7705 247.857 25.5397C248.297 21.4245 248.959 17.384 249.922 13.8789C250.848 10.5111 252.075 7.54922 253.723 5.49937C254.026 5.63451 254.328 5.77187 254.629 5.91142C254.92 6.04668 255.209 6.184 255.497 6.32334C255.462 6.39733 255.417 6.46803 255.362 6.53348C253.895 8.27013 252.706 11.0002 251.774 14.3905C250.848 17.7605 250.201 21.6899 249.766 25.7454C248.938 33.476 248.89 41.5797 249.11 46.9645C255.41 48.0168 264.608 49.3781 272.665 50.1973C276.863 50.6242 280.728 50.9014 283.704 50.9146C285.195 50.9212 286.435 50.8612 287.37 50.7285C287.837 50.6621 288.205 50.5807 288.479 50.4905C288.766 50.3962 288.883 50.3136 288.913 50.2862C289.043 50.1661 289.197 50.0889 289.359 50.0539Z" fill="#3F7B70"/>
<path d="M285.458 38.0547C285.596 38.3746 285.732 38.6956 285.865 39.0176C285.988 39.3142 286.108 39.6116 286.227 39.9098C286.115 39.9553 285.993 39.9804 285.865 39.9804H257.535L262.39 10.7175C262.413 10.5771 262.466 10.4489 262.54 10.338C262.808 10.5153 263.073 10.6945 263.337 10.8756C263.63 11.0766 263.921 11.28 264.209 11.4856L259.801 38.0547H285.458Z" fill="#3F7B70"/>
<path d="M280.625 28.9048C280.827 29.2241 281.027 29.545 281.223 29.8677C281.39 30.1416 281.555 30.4168 281.718 30.6931C281.574 30.7803 281.404 30.8305 281.223 30.8305H269.608C269.077 30.8305 268.647 30.3994 268.647 29.8676C268.647 29.6889 268.696 29.5215 268.781 29.3781L269.676 16.6961C269.692 16.4686 269.786 16.2652 269.93 16.11C270.166 16.3264 270.401 16.5444 270.634 16.7642C270.938 17.0506 271.239 17.3398 271.536 17.6318L270.739 28.9048H280.625Z" fill="#3F7B70"/>
</g>
<path d="M270.74 31.0101L277.938 24.9901C277.619 24.5608 277.295 24.1353 276.965 23.7137C276.636 23.2931 276.302 22.8763 275.962 22.4637L275.94 22.4815L268.69 28.5456C268.69 28.5456 268.69 28.5455 268.69 28.5456C268.672 28.5606 268.654 28.576 268.637 28.5916C268.619 28.6058 268.6 28.6204 268.582 28.6354L208.705 78.7172L173.421 117.311C172.823 117.964 172.867 118.979 173.519 119.578C174.171 120.177 175.183 120.133 175.78 119.48L210.92 81.0442L211.576 80.4956C211.576 80.4956 211.576 80.4956 211.576 80.4956L270.633 31.1C270.651 31.0849 270.669 31.0696 270.686 31.0539C270.704 31.0398 270.722 31.0252 270.74 31.0101Z" fill="#2E7A48"/>
<g style="mix-blend-mode:multiply">
<path fill-rule="evenodd" clip-rule="evenodd" d="M277.938 24.9902L270.74 31.0101C270.722 31.0252 270.704 31.0398 270.686 31.0539C270.669 31.0696 270.651 31.0849 270.633 31.1L211.576 80.4956L211.576 80.4957C210.966 80.2488 210.377 80.0423 209.813 79.8807C209.725 79.3536 209.609 78.7529 209.462 78.0844L268.582 28.6354C268.6 28.6204 268.619 28.6058 268.637 28.5916C268.654 28.576 268.672 28.5606 268.69 28.5456L275.94 22.4815L275.962 22.4638C276.302 22.8764 276.636 23.2931 276.965 23.7137C277.295 24.1354 277.619 24.5609 277.938 24.9902Z" fill="#2E7A48"/>
</g>
</svg>
