<svg width="120" height="120" viewBox="0 0 120 120" fill="none" xmlns="http://www.w3.org/2000/svg">
<path d="M71.5838 84.9018C75.1402 82.5022 78.4503 80.6647 81.1873 79.8807C81.8933 75.6336 84.4677 66.6097 89.8376 55.7834C92.5839 50.2466 96.0614 44.2384 100.394 38.1566C106.889 29.0401 104.95 19.6593 97.8933 12.4804C94.6573 9.18847 90.3452 6.35955 85.2765 4.2314C81.6534 2.71019 77.6438 1.54703 73.3643 0.828748C70.2324 0.30309 66.9561 0.0157027 63.581 0.000625387C60.1615 -0.0146502 56.6406 0.249591 53.066 0.828748C50.1952 1.29386 47.2898 1.96206 44.3744 2.8517C41.5862 3.70251 38.9174 4.72823 36.3714 5.91142C33.2861 7.34523 30.3813 9.01029 27.663 10.8756C25.0573 12.6636 22.6231 14.6355 20.3658 16.7642C18.0708 18.9283 15.9586 21.2544 14.035 23.7137C12.4935 25.6844 11.0732 27.7407 9.77684 29.8677C7.99192 32.7963 6.44212 35.8592 5.13515 39.0176C3.53274 42.89 2.29533 46.9061 1.43708 50.9948C0.642815 54.7788 0.173302 58.625 0.0397644 62.4771C-0.0999756 66.5083 0.128242 70.546 0.737305 74.5256C1.27588 78.0446 2.11224 81.5182 3.25531 84.9018C3.59629 85.9111 3.96456 86.9124 4.36036 87.9045C8.35403 97.9149 12.7701 104.112 17.1647 107.775C26.8601 115.857 36.4513 111.607 41.1733 108.767C47.221 105.128 60.5815 92.3251 71.5838 84.9018Z" fill="#2E7A48"/>
<g style="mix-blend-mode:multiply">
<path d="M74.4318 1.01818C74.0779 0.951965 73.722 0.888799 73.3642 0.828748C73.0494 0.775915 72.7332 0.725488 72.4155 0.677504C72.3923 0.823118 72.4022 0.976281 72.4508 1.12616C75.6556 11.0185 75.3986 24.2258 73.7217 36.8131C72.0571 49.3086 69.0124 61.0601 66.7058 68.0913C58.4431 72.1318 45.6884 77.6326 33.4944 81.3838C27.2392 83.3081 21.1636 84.7619 15.934 85.3303C10.6621 85.9033 6.42731 85.5546 3.71856 84.0584C3.47519 83.924 3.19903 83.9065 2.95442 83.9873C3.05221 84.2928 3.15247 84.5977 3.25521 84.9018C3.40139 85.3345 3.55258 85.7657 3.70881 86.1953C6.90498 87.5857 11.2686 87.7744 16.141 87.2448C21.5396 86.658 27.7443 85.167 34.0578 83.2248C46.6883 79.3393 59.8823 73.6077 68.1809 69.5111C68.6283 69.2902 68.8282 68.7668 68.6557 68.3084C70.9788 61.139 73.9735 49.469 75.6255 37.0681C77.286 24.6036 77.609 11.2699 74.4318 1.01818Z" fill="#2E7A48"/>
<path d="M86.3089 4.67923C85.9684 4.5267 85.6242 4.3774 85.2764 4.2314C84.9824 4.10795 84.6859 3.98686 84.3868 3.86817C84.3245 4.02116 84.3007 4.19226 84.3257 4.36765C88.7779 35.5835 79.706 63.2672 74.4383 73.6273C74.3666 73.6552 74.297 73.6922 74.2313 73.7387C67.3407 78.6112 55.7973 85.6099 43.602 90.7457C37.5055 93.3131 31.2694 95.405 25.3862 96.5384C19.4946 97.6735 14.0185 97.8352 9.40915 96.6028C9.09264 96.5181 8.77087 96.6023 8.53889 96.8001C8.89395 97.4364 9.25095 98.0489 9.60959 98.6383C14.4427 99.7778 19.9814 99.5407 25.7487 98.4296C31.803 97.2632 38.1713 95.1214 44.3458 92.5211C56.5469 87.3829 68.0819 80.4155 75.0892 75.488C75.4226 75.4762 75.7404 75.2903 75.9065 74.9729C81.2534 64.7565 90.6972 36.5895 86.3089 4.67923Z" fill="#2E7A48"/>
<path d="M98.9807 13.6504C98.6332 13.2543 98.2705 12.8642 97.8932 12.4804C97.6699 12.2532 97.4415 12.0282 97.208 11.8056C97.011 12.0069 96.9035 12.2929 96.9396 12.5948C97.8411 20.1391 96.7159 28.8369 94.9143 36.6874C93.1152 44.5274 90.6594 51.4463 88.9558 55.4017C88.7519 55.875 88.9566 56.4222 89.4131 56.6472C89.5526 56.3606 89.694 56.0727 89.8375 55.7834C90.9054 53.6303 92.084 51.406 93.3803 49.1337C94.5604 45.6438 95.7754 41.5235 96.7861 37.1192C98.5109 29.6031 99.6569 21.192 98.9807 13.6504Z" fill="#2E7A48"/>
<path d="M58.3488 95.0632C62.7411 91.4322 67.338 87.7664 71.5837 84.9018C71.8517 84.7209 72.1184 84.5432 72.3836 84.3689C72.374 84.3545 72.364 84.3403 72.3536 84.3263C72.0366 83.8999 71.4349 83.8119 71.0097 84.1298C64.3726 89.0903 53.6996 96.1802 43.27 101.323C38.0531 103.895 32.933 105.962 28.4304 107.04C23.8911 108.127 20.1584 108.166 17.5849 106.91C17.1845 106.714 16.7151 106.823 16.4374 107.146C16.6798 107.364 16.9222 107.573 17.1646 107.775C17.9716 108.448 18.7779 109.035 19.5808 109.545C22.2956 110.036 25.4864 109.725 28.8767 108.913C33.574 107.788 38.8375 105.654 44.1176 103.051C48.9543 100.666 53.8351 97.8721 58.3488 95.0632Z" fill="#2E7A48"/>
<path d="M0.926804 75.6912C3.93279 77.0531 8.0715 77.3644 12.7014 77.0446C17.7077 76.6989 23.4479 75.6017 29.2817 74.1211C40.952 71.1591 53.1142 66.6318 60.7565 63.3627L61.1993 63.1732L61.3129 62.7042C62.9236 56.0538 65.0129 44.9523 66.0579 33.2156C67.0905 21.618 67.1148 9.2877 64.5809 0.0130891C64.2486 0.00628454 63.9152 0.00211893 63.5809 0.000625387C63.2615 -0.000801159 62.9413 0.000210016 62.6202 0.00368774C62.6206 0.0888141 62.6322 0.175311 62.6563 0.26125C65.1682 9.21661 65.1827 21.3873 64.1448 33.0443C63.1334 44.4037 61.1335 55.1665 59.5592 61.7804C51.96 65.0055 40.1369 69.3795 28.8103 72.2542C23.0342 73.7202 17.4167 74.7887 12.5694 75.1235C7.68465 75.4609 3.73829 75.0402 1.18935 73.6761C1.00124 73.5754 0.794724 73.5439 0.598778 73.5727C0.642502 73.8907 0.688644 74.2083 0.737198 74.5256C0.796753 74.9147 0.859955 75.3033 0.926804 75.6912Z" fill="#2E7A48"/>
<path d="M0.0800095 61.5149C0.0642395 61.8356 0.0507812 62.1563 0.0396652 62.4771C0.0268097 62.8479 0.017067 63.2189 0.0104523 63.5898C0.848267 64.0353 1.92632 64.3051 3.11912 64.4672C4.61559 64.6706 6.42281 64.7201 8.44148 64.6534C12.4814 64.52 17.4765 63.917 22.7438 63.0695C33.2843 61.3734 45.0226 58.68 52.6168 56.7157L53.1796 56.5702L53.312 56.0027C55.3926 47.0846 58.4302 23.6116 54.0156 0.682063C53.6995 0.728499 53.3829 0.777384 53.0659 0.828748C52.7506 0.879822 52.435 0.933346 52.1189 0.989342C52.1202 0.996728 52.1215 1.00412 52.1229 1.01151C56.392 23.1457 53.6022 45.8577 51.5709 54.9968C44.0052 56.9371 32.6451 59.5259 22.4394 61.1681C17.2046 62.0104 12.3005 62.5992 8.37824 62.7287C6.41587 62.7935 4.72631 62.7423 3.3771 62.559C1.99882 62.3716 1.09795 62.0613 0.607674 61.7007C0.447968 61.5832 0.264076 61.5225 0.0800095 61.5149Z" fill="#2E7A48"/>
<path d="M1.64148 50.0539C1.57108 50.3671 1.50291 50.6807 1.43698 50.9948C1.36523 51.3367 1.29613 51.679 1.22968 52.0219C1.4496 52.1465 1.6869 52.2429 1.92208 52.3203C2.34017 52.4578 2.82776 52.5595 3.36122 52.6352C4.42829 52.7867 5.77248 52.847 7.30414 52.8403C10.3728 52.8267 14.3095 52.5423 18.529 52.1132C26.9744 51.2545 36.6453 49.8067 42.9744 48.7347L43.7364 48.6056L43.7736 47.8317C44.0354 42.3944 44.0254 33.7705 43.1435 25.5397C42.7025 21.4245 42.0412 17.384 41.0779 13.8789C40.1523 10.5111 38.9247 7.54922 37.2773 5.49937C36.9736 5.63451 36.6716 5.77187 36.3713 5.91142C36.0803 6.04668 35.7908 6.184 35.503 6.32334C35.538 6.39733 35.583 6.46803 35.6383 6.53348C37.1045 8.27013 38.2944 11.0002 39.2262 14.3905C40.1524 17.7605 40.7992 21.6899 41.2338 25.7454C42.0621 33.476 42.1104 41.5797 41.8897 46.9645C35.5898 48.0168 26.3921 49.3781 18.3352 50.1973C14.1374 50.6242 10.2723 50.9014 7.29566 50.9146C5.80465 50.9212 4.56527 50.8612 3.63048 50.7285C3.16302 50.6621 2.7951 50.5807 2.52094 50.4905C2.23415 50.3962 2.11685 50.3136 2.08717 50.2862C1.95701 50.1661 1.80269 50.0889 1.64148 50.0539Z" fill="#2E7A48"/>
<path d="M5.54231 38.0547C5.40404 38.3746 5.26829 38.6956 5.13505 39.0176C5.01233 39.3142 4.89175 39.6116 4.77332 39.9098C4.88495 39.9553 5.00705 39.9804 5.13499 39.9804H33.4651L28.6101 10.7175C28.5868 10.5771 28.5343 10.4489 28.4599 10.338C28.1924 10.5153 27.9268 10.6945 27.6629 10.8756C27.3699 11.0766 27.0791 11.28 26.7905 11.4856L31.1986 38.0547H5.54231Z" fill="#2E7A48"/>
<path d="M10.3752 28.9048C10.1728 29.2241 9.97336 29.545 9.77674 29.8677C9.60977 30.1416 9.44484 30.4168 9.28199 30.6931C9.42648 30.7803 9.59574 30.8305 9.77669 30.8305H21.3923C21.9227 30.8305 22.3527 30.3994 22.3527 29.8676C22.3527 29.6889 22.3041 29.5215 22.2195 29.3781L21.3236 16.6961C21.3075 16.4686 21.2139 16.2652 21.0704 16.11C20.8336 16.3264 20.5987 16.5444 20.3657 16.7642C20.062 17.0506 19.7615 17.3398 19.4642 17.6318L20.2605 28.9048H10.3752Z" fill="#2E7A48"/>
</g>
<path d="M20.2595 31.0101L13.062 24.9901C13.3807 24.5608 13.7049 24.1353 14.0347 23.7137C14.3637 23.2931 14.6982 22.8763 15.0382 22.4637L15.06 22.4815L22.3101 28.5456C22.3101 28.5456 22.31 28.5455 22.3101 28.5456C22.3281 28.5606 22.3459 28.576 22.363 28.5916C22.3815 28.6058 22.3997 28.6204 22.4177 28.6354L82.2948 78.7172L117.579 117.311C118.177 117.964 118.133 118.979 117.481 119.578C116.829 120.177 115.817 120.133 115.22 119.48L80.0797 81.0442L79.4239 80.4956C79.4238 80.4956 79.4239 80.4956 79.4239 80.4956L20.3669 31.1C20.3489 31.0849 20.3313 31.0696 20.3142 31.0539C20.2957 31.0398 20.2775 31.0252 20.2595 31.0101Z" fill="#2E7A48"/>
<g style="mix-blend-mode:multiply">
<path fill-rule="evenodd" clip-rule="evenodd" d="M13.0623 24.9903L20.2595 31.0101C20.2775 31.0252 20.2958 31.0398 20.3142 31.0539C20.3314 31.0696 20.3489 31.0849 20.3669 31.1L79.4239 80.4956L79.424 80.4957C80.0343 80.2488 80.623 80.0423 81.1874 79.8807C81.275 79.3536 81.3914 78.753 81.5383 78.0844L22.4177 28.6354C22.3998 28.6204 22.3815 28.6058 22.3631 28.5916C22.3459 28.576 22.3281 28.5606 22.3101 28.5456L15.06 22.4815L15.0384 22.4638C14.6985 22.8765 14.364 23.2932 14.035 23.7137C13.7052 24.1354 13.3809 24.5609 13.0623 24.9903Z" fill="#2E7A48"/>
</g>
</svg>
